<svg xmlns="http://www.w3.org/2000/svg" xmlns:xlink="http://www.w3.org/1999/xlink" viewBox="0 0 3840 3840"><style><![CDATA[.AG{fill:none}.AH{stroke-miterlimit:10}.AI{fill:#c46c30}.AJ{stroke-linecap:round}.AK{stroke-linejoin:round}.AL{fill:#5d2262}.AM{fill:#a14518}.AN{fill:#b1b4b6}.AO{stroke:#5d2262}.AP{fill:#e60278}.AQ{fill:#97ddcf}.AR{stroke:#000}.AS{fill:#0d3880}.AT{stroke:#a14518}.AU{fill:#efa656}.AV{clip-path:url(#M)}.AW{fill:#cfddf5}.AX{stroke:#d6d6d6}.AY{fill:#fee274}.AZ{stroke-width:7.044}.Aa{fill:#f4f4f5}.Ab{fill:#af5928}.Ac{fill:#ef642f}.Ad{fill:#f4c58d}.Ae{fill:#00a5ad}.Af{fill:#080559}.Ag{stroke-width:5.653}.Ah{stroke:#b1b4b6}.Ai{stroke-width:49.008}.Aj{fill:#747474}.Ak{stroke-width:5.635}.Al{stroke-width:3.734}.Am{stroke-width:7.066}.An{stroke-width:8.391}.Ao{stroke-width:6.657}]]></style><path d="M1206 2654.3c45.2 17 92.9 28.2 149.3 24.9s63-39.9 124.4-38.2 96.2 33.2 157.6 14.9 85.4-80.1 51.2-167c-34.5-87.5-65.8-182.1-314.6-173.8s-344.8 92.8-317.3 185.6c21 71.2 109.6 138.6 149.4 153.6z" class="AW"/><g class="AG AH AJ"><path d="M1580.1,1382.8c20.9,51.6,53.4,112.3,54.7,136.9c3.1,57.2-44.5,79.2-44.5,79.2l-16.6,5.9" stroke="#c46c30" stroke-width="126.051"/><g stroke-width="70.116" class="AK AX"><path d="M1183.1 2382.1l167.9-112.2v-629m170.4 741.2l-167.9-112.2"/><path d="M1350.6 2406.7v-142.4"/></g></g><g class="AN"><circle cx="1157.1" cy="2398.9" r="51.9"/><circle cx="1350.6" cy="2432.6" r="51.9"/><circle cx="1537.2" cy="2398.9" r="51.9"/></g><g fill="#fa0"><path d="M1594.3 1812.1s55.7 15.4 54.4 129.8-159.5 132.2-251 132.2v-196.4l196.6-65.6z"/><path d="M1217.7 1812.1s-55.7 15.4-54.4 129.8 159.5 132.2 251 132.2v-196.4l-196.6-65.6z"/></g><ellipse cx="1405.8" cy="1863.5" rx="227.7" ry="96.1" class="AY"/><g class="AM"><path d="M1495.2 2164s-57.8 112.6-61.2 212.7l66.2 129.7 65.8-6.4 6.9-74.6c13.9-66 37.9-130 67.6-190.6l73-133.3-103-126.5-115.3 189z"/><path d="M1701.3 2121.9s90.8-147.3 91.4-266.6c.7-119.3-182.9 30.9-182.9 30.9l23.7 168.7 13 50.3"/></g><path d="M1497.3 988.4s-51.1-20.4-105.4 29.7c-35.4 32.6-17.6 48.3-54.1 65.7-35.5 16.9-77.7 18.9-98.5 92.3-10.4 36.8-33.5 40.5-67.5 63.9-30.8 21.2-47.9 39.7-51.5 88.6-2.6 35.4-30.9 40.1-57.2 59.1-31.8 23-61.7 50.6-54.5 99.5 10.1 67.9 120.7 51.8 166.8 19 49.3-35.1 74-14 137.8-38.1 54.1-20.4 35.5-50.2 59.8-83.4 27.2-37.2 91.7-12.5 125.3-56.1 42.6-55.3-15.9-63.3 22.9-113.6 34.5-44.7 40.4-83 40.2-106.9-.3-29.6-4.4-103.7-64.1-119.7z" class="AL"/><path d="M1472.6 1433.5l-8.3-9.4 11-130.8s32.7-8.6 62.6-10 80.2 13.9 104.8 87.7c4 12-36.4 41.9-36.4 41.9" class="AI"/><path d="M1577.4 1965.2c-33.7-4.4-93.6-17.9-93.6-17.9-99.8-10.2-198.2-5-238.3-68.2-34.6-54.5-23.4-121.2-7.1-169.5 19.2-56.7 59.5-117.2 82.5-150.9 35.6-52 158.7-58.5 183.7-5.3 12.1 25.8 39.2 59.4 175 137.5 0 0 66.1 39 72.6 116.3l-174.8 158z" fill="#3f51b5"/><path d="M1435.7 1269.8l-75.7 3.1-95.8 121.8 56.8 164 183.7-5.3s6.3-35.2 18.1-115-44.4-137.8-44.4-137.8l-42.7-30.8z" class="AQ"/><path d="M1483.9 1177.8l2.7 87.3v.1l.1 34.6-40.8-29.7-74.9 11.5 6.2-21.4 20.3-131z" class="AI"/><defs><path id="A" d="M1484.2 1182.9l2.4 82.2v.1l.1 34.6-41-29.2-74.2 24.7 5.7-35.1 21.5-110.8z"/><path id="B" d="M972.3 3090.4c1.3 4.6-.9 9-4.6 9.7s-8.2-2.4-9.4-7c-1.2-4.5 1.2-8.8 4.8-9.5s7.9 2.3 9.2 6.8z"/></defs><clipPath id="C"><use xlink:href="#A"/></clipPath><path d="M1502.4 1178.3l-13.1 71.9c-39.6-20.8-62.1-80.1-71-97.8l84.1 25.9z" clip-path="url(#C)" class="AM"/><path d="M1534.7 1114.5l-3.9-48.3s14.2-4.7 28.6 3 12.6 26.4 4.3 35.3c-8.4 8.9-29 10-29 10z" class="AI"/><path d="M1429.7,1007.6c7.7-2.9,27-12.6,39.2-28.2c18.4-23.5,41-20.5,41-20.5" class="AG AH AJ AK AO AZ"/><path d="M1547.9 1119.5c-.1.4-.2.8-.4 1.1-.4 1.5-.9 3-1.5 4.4-.2.7-.5 1.4-.8 2-2.5 6.6-5.7 12.8-9.6 18.7-.7 1.1-1.4 2.1-2.2 3.1-1.5 2.1-3 4.1-4.6 6-16.3 19.5-39.8 32.2-66.5 33.7-31.2 1.7-53.6-12.6-71.7-36-3.9-5.1-7.4-10.6-10.3-16.5-1.4-2.7-2.6-5.5-3.7-8.4s-2.1-5.9-2.9-8.9a104.32 104.32 0 0 1-3.5-21.9v-.6c-2.3-53.8 31.9-99.7 83.8-102.5 29-1.6 55.5 10.6 73.7 31.1 7.4 8.3 13.3 18 17.6 28.7 0 .2.1.3.2.5.4 1.1.9 2.2 1.2 3.4 2.3 6.7 4 13.8 4.9 21.1a93.51 93.51 0 0 1 .6 7.6c.5 11.5-1 22.8-4.3 33.4z" class="AI"/><path d="M1396.6 1044.4s39.3 5.6 69.6-26c0 0-14.6 19.1 6.3 24 15.9 3.8 42.1-29.6 42.1-29.6s-11.4 22.9 4.1 24 24.5-21.9 20.2-45.9c-6.6-36.5-60.6-25.4-73.5-14.4 0 0-128.7-57.5-128.5 110.3 0 0 33.7-14.1 48.2-19.3.1.1 8.2-11.2 11.5-23.1z" class="AL"/><path d="M1537.9 1003c-39.5 0-104.9.1-188.2 6-6.1.4-11.5 3.6-13.3 9.2l-5.2 16c-2.7 8.3 3.6 17.3 12.7 16.9 45-2.2 135.5-8.6 199.7-7.2 8.3.2 13.4-9 11-16.6l-4.6-15c-1.9-5.9-5.7-9.3-12.1-9.3z" fill="#b99cff"/><g class="AG AH AJ AK Ak"><path d="M1482.4 1118.1c4.2-1.9 5.8-7.4 2.8-11.3 0 0-10.8-13.7-13.3-22.3m-2.5 36.4l11.4-2.3c.6-.1 1.1-.3 1.6-.5" class="AT"/><path d="M1452.4 1054.1c-6.8-6.1-19.9-6.3-29.8 2.4m68.8-4c6.5-6.4 19.6-7.2 29.8 1.1m-30.4 28.3c1.5-2.9 4-5.4 7.3-6.9 7.5-3.4 16.2-.4 19.6 6.8l4.2-2.2m-68.5 4.2c-1.8-2.7-4.6-4.9-8-6-7.8-2.5-16.2 1.6-18.6 9.1l-4.4-1.7" class="AR"/></g><g class="Aa"><circle cx="1441.1" cy="1092.7" r="13.8"/><circle cx="1504.6" cy="1089.2" r="13.8"/></g><circle cx="1509.4" cy="1094.5" r="6.4"/><circle cx="1446.4" cy="1097.4" r="6.4"/><path d="M1480.5 1150.7c-5.6 4.4-12.3 6.1-20.2 4.7-7.3-1.3-13.8-6-16.9-11.8-2.6-5-3.1-12 2-13.6 5.2-1.7 7.9 3 19.9 3.8 11.5.8 16.3-2.3 20.7 1.2 3.6 2.5.5 11-5.5 15.7z"/><path d="M1460.8 1147.3c-7.1-4.1-13.1-4.5-17.2-3.5 1.9 3.4 7 9.8 16.7 11.5 3 .5 5.8.6 8.6.2-1.1-2.9-3.5-5.5-8.1-8.2z" class="AP"/><g class="AI"><path d="M1286.4 1256.9c-29.8-12.3-74.4-18.6-123.3 24.1-92.5 80.8-155.6 150.3-155.6 150.3s-15.7 86.2 81.5 110.9c0 0 134.9-117.2 177.9-149.8 0 0 28.7-8.3 47.1-21.1"/><path d="M1009.2 1617.3s-67.3-23.9-73.6-65.6c-8.4-56.4 50.9-98 75.4-124 0 0 50.2 49.9 150.5 52.1l-152.3 137.5z"/><path d="M963.7 1591.5s73.4 60.1 255.1 73.5c51.6 3.8 49.7-122.1 49.7-122.1s-33 8.3-69.2-.4l-124.6-29-111 78z"/></g><path d="M1118.5 1280.2s34.1-40.9 80.6-52.2" class="AG AH AJ AK AO AZ"/><path d="M1390.1 1224.1s-11.5 57.7-63.9 47.9l146.4 161.5 18.6-144.7-16 4.4 1.3-30.8-86.4-38.3z" class="AI"/><path d="M1245 1248.4s35.1 4.3 49.3 68c10.7 47.9-30.2 78.3-30.2 78.3l220.1 98.3-24-87s-58.6-87.9-112.9-131.5c0 .1-77.2-28.6-102.3-26.1z" class="AQ"/><path d="M1349.5 1103.9s4.5 9.4 17.1 8.5c-4.5 24.6 8.6 52.6 13.1 85.6 12 88.9-37.4 104.4-89.5 69.5-39.2-26.2-70-17.7-70-17.7l129.3-145.9z" class="AL"/><path d="M1387.9 1067l-1.3 48.4s-13.1 5.2-26.5-4-10.7-28.9-2.1-37.6c11.2-11 29.9-6.8 29.9-6.8z" class="AI"/><path d="M1312 1529.4l-7.1 54.1s126-24 212.1-8l-7.1-51.5c0 .1-79.7-12.8-197.9 5.4z" class="AS"/><path d="M1427.4 1472.6l82.5 51.5s47.7-163.2 37.3-240.5c0 0-30.2-3.6-55.9 5.3 0 0-16.9 92.3-63.9 183.7z" class="AQ"/><path d="M1232.1 1158.4s33.6-47.3 63.8-49.4m235.2 119.2s19.3-47.4 17.1-74.3" class="AG AH AJ AK AO AZ"/><path d="M1557.2 1776s17.2-76.4 122.9-85.2l32.1 22.1 57.8 41.9c57.4 40.1 74.9 108.8 20.8 205.9l-83.4 150.5" class="AM"/><path d="M1500.6 1964.3s-27.7-4.8-87.7-23.1c-59.9-18.3-41.7-113.6-7-160s111 160 111 160l-16.3 23.1z" class="Ab"/><g class="AI"><path d="M1329.5 1575l.2.1h0l-.2-.1h-.5l-1.2-.2-2.6-.3c-1.8-.1-3.6-.1-5.3 0-3.4.2-6.6.8-9.2 1.9a20.17 20.17 0 0 0-3.6 1.8l-2.9 2.2c-1.7 1.6-3.2 3.6-4.6 5.9a26.91 26.91 0 1 1-46.3-27.5c.9-1.5 1.9-2.9 3-4.1l1.6-1.8c5.3-5.9 11.8-11.4 19.1-15.5 3.6-2.1 7.5-3.8 11.4-5.1 3.9-1.4 7.9-2.3 11.8-3 7.9-1.3 15.5-1.3 22.7-.4 3.6.5 7.2 1.1 10.6 2 1.7.4 3.5.9 5.2 1.5l2.7.9 1.4.5 1.9.7c11.1 4.2 16.7 16.7 12.5 27.9-4.1 11.2-16.6 16.8-27.7 12.6z"/><path d="M1310.8 1609.5l.2.1h0l-.2-.1h-.5l-1.2-.2-2.6-.3c-1.8-.1-3.6-.1-5.3 0-3.4.2-6.6.8-9.2 1.9a20.17 20.17 0 0 0-3.6 1.8l-2.9 2.2c-1.7 1.6-3.2 3.6-4.6 5.9a26.91 26.91 0 1 1-46.3-27.5c.9-1.5 1.9-2.9 3-4.1l1.6-1.8c5.3-5.9 11.8-11.4 19.1-15.5 3.6-2.1 7.5-3.8 11.4-5.1 3.9-1.4 7.9-2.3 11.8-3 7.9-1.3 15.5-1.3 22.7-.4 3.6.5 7.2 1.1 10.6 2 1.7.4 3.5.9 5.2 1.5l2.7.9 1.4.5 1.9.7c11.1 4.2 16.7 16.7 12.5 27.9-4.1 11.3-16.6 16.9-27.7 12.6z"/><path d="M1292.9 1644.2l.2.1h0l-.2-.1h-.4c-.3 0-.7-.1-1.1-.1l-2.5-.2c-1.7-.1-3.4-.1-5.1 0-3.3.2-6.4 1-9 2-1.3.5-2.5 1.2-3.7 1.8-1.1.7-2.2 1.5-3.2 2.3-2 1.7-3.7 3.8-5.4 6.3-7.7 11.7-23.3 14.9-35 7.3-11.7-7.7-14.9-23.3-7.3-35 .6-1 1.3-1.8 2-2.7l.9-1.1c5-5.7 10.9-10.9 17.6-15.1 3.4-2.1 6.9-3.9 10.6-5.4 3.6-1.5 7.4-2.6 11.1-3.5 7.5-1.7 15-2.2 22.2-1.7 3.6.2 7.1.7 10.6 1.4 1.8.3 3.5.7 5.3 1.2.9.2 1.8.5 2.7.8l1.4.5 2 .7c11.2 3.8 17.2 16 13.4 27.2s-15.9 17.1-27.1 13.3z"/><path d="M1265.9 1546.6s-12 7.1-15.5 20.1c-1.7 6.4-4.9 12.4-9.4 17.3-4.1 4.5-8.5 11.1-9.7 20.1-1 7.4-3.7 14.5-8.3 20.4-5.8 7.6-11 20.7-2.2 39.6l45.1-117.5zm260.9 17.2c.3-.2.4-.3.5-.4l.3-.3.5-.5 1-.8 1.8-1.6 3.6-2.9c2.4-1.9 5-3.6 7.6-5.2l7.9-4.8c14.7-9 33.9-4.3 42.9 10.4s4.3 33.9-10.4 42.9c-8.1 4.9-17.7 5.7-26.1 3-1.4-.5-3-.9-4.5-1.2-.8-.2-1.5-.3-2.3-.4-.4-.1-.7-.1-1.1-.2-.2 0-.3-.1-.5-.1-.1 0-.1 0-.2-.1 0 0-.1 0 0-.1 0 0-.1 0 .2-.2-10.4 5.9-23.6 2.2-29.4-8.1-5.9-10.3-2.2-23.5 8.2-29.4z"/><path d="M1523.5 1533.7h.6.4.7 1.3l2.4-.1h4.6c3.1.1 6.1.4 9.2.8l9.1 1.3c17.1 2.3 29 18.1 26.7 35.1-2.3 17.1-18.1 29-35.1 26.7-9.4-1.3-17.3-6.8-22.1-14.2-.8-1.3-1.8-2.6-2.8-3.8l-1.5-1.8c-.3-.3-.5-.6-.7-.8-.1-.1-.2-.3-.3-.4 0-.1-.1-.1-.1-.2v-.1c.1 0 0-.1.2 0-11.8-2-19.7-13.1-17.7-24.9 2.2-11.7 13.4-19.6 25.1-17.6z"/><path d="M1553.5 1591.9l3.2-1.4 2.8-1.1 5.7-2c3.9-1.2 7.9-2.3 12.3-3s9.2-1.2 14.8-.9c1.4.1 2.9.3 4.4.5 1.5.3 3.1.5 4.7 1 3.3.9 6.8 2.2 10.3 4.2 11.8 7.4 15.4 22.9 8 34.7s-22.9 15.4-34.7 8c1.7.7 2.2.1 1.3-.2-.7-.4-2.4-.8-4.3-.9-2-.1-4.2 0-6.6.2-1.2.1-2.4.3-3.6.5l-1.8.3-.8.2-.4.1c-.1 0-.3.1-.1 0-11.1 4.2-23.5-1.4-27.7-12.4-4.1-11.2 1.4-23.6 12.5-27.8z"/></g><path d="M1565.1 1540.2s36.9 2.7 48.4 36.2c10.2 30.1 5.8 54.4-1.5 73.3l10.1 6.4c3.1 2 7.5.4 9.8-4.8 2.8-6.1 7.3-11.8 9.3-25.6 3.7-25.1.5-46-13.2-64-15.4-20.2-40.3-29.7-56.8-29.7-2.5 0-4.7 1.4-5.5 3.8l-.6 4.4zm-392.7 118s-11-27.1-6.4-62.7c4.6-35.7 27.5-54.1 27.5-54.1 5.4-4.9 15.4-7.7 20.7-7l35.8 1.6c5.2.7 8.9 5.4 8.2 10.7 0 0-17.4 2-24.5 58.9-4.8 39.1 9.4 61.5 9.4 61.5-.7 5.2-5.4 8.9-10.7 8.2l-45.8-6.4c-5.2-.7-12.4-4.8-14.2-10.7z" fill="#b99cff"/><path d="M1555.6 2357.8l-25.4 1.6c-17.2 1.1-29.5 17.1-26.3 34l2.8 17.5c1.8 11.5-11.4 19.3-20.6 12.2-16.4-12.6-37.3-34.7-51.6-71.2l-.9 74.3c-.3 18.4 4.5 36.9 10 54.4 17.8 56 62.9 160.5 145.3 163.5 81.3 3 71.9-72.9 55.7-105.3-20.1-40.3-50.7-74.8-55.4-109.7-2.3-16.8-3.1-31.5-3.2-43.2-.1-16.3-14-29.2-30.4-28.1z" class="AQ"/><defs><path id="D" d="M1555.6 2357.8l-25.4 1.6c-17.2 1.1-29.5 17.1-26.3 34l3.3 17.3c1.7 8.7-8.3 14.9-15.4 9.6-16.8-12.6-40.8-36.4-56.8-76.9l-1.5 82.9c-.3 18.4 7.1 44.2 12.7 61.7 17.8 56 58.8 152.3 142.6 156.2 81.3 3.7 71.9-72.9 55.7-105.3-20.1-40.3-50.7-74.8-55.4-109.7-2.3-16.8-3.1-31.5-3.2-43.2 0-16.4-13.9-29.3-30.3-28.2z"/></defs><clipPath id="E"><use xlink:href="#D"/></clipPath><g fill="#fff"><path d="M1677.7 2580s-15.3 27.5-56.6 29.6c-47.6 2.3-81.4-9.4-109.5-42.4-43.8-51.3-84.4-172.7-84.4-172.7l-22 49.3 55.9 171 141.9 98.5 146.5-56.5-71.8-76.8z" clip-path="url(#E)"/><path d="M1598.1 2474.9c-2.3-16.8-11.9-77.2-12-88.9-.2-16.4-14.1-29.3-30.5-28.2l-25.4 1.6c-17.2 1.1-29.5 17.1-26.3 34l2.8 17.5c4.6 23 19.4 51.8 30.4 63 12.2 12.5 50.2 7.1 50.2 7.1"/></g><path d="M1419.6 1943.4S1310 2142.6 1269 2246.9c-21.2 54-31.5 135.1-31.5 135.1l53.9 102.3 91.7-20.7s-13.3-78.6 2.9-117.1c23-54.5 152.8-232 238.5-349.2 40.9-55.9 34.3-133.4-15.5-181.6h0c-2.3-2.2-4.7-4.3-7.1-6.4l-3.7-3-.9-.7-.8-.6-1.6-1.2-1.6-1.2-1-.8-2-1.5-4.1-2.9-66.2-46.4-.1-.1-13.5-8.9c-46-2-79 17.3-97.8 36.5-29.9 30.6-61 111.8-12.6 154" class="Ab"/><path d="M1235.9 2483.2c3.2 58.4 10.1 173.7 99.4 173.8 94.3.1 91.5-65.5 81.6-100.1-11.5-40.2-30.3-64.8-37.7-138.5h0c-4 5.8-14.6 2.5-14-4.5l1.4-16.4c.9-11.8-2.7-21.5-14.5-21.7l-47.9-1.5c-11.5-.2-20.5 9.7-19.3 21.1.6 5.5 1.6 11.8 2.8 18.3 1.3 7.6-8.9 11.3-12.8 4.6-12.3-21.3-28.7-56.2-25.8-102.2 0 .1-19.8 47.1-13.2 167.1z" class="AQ"/><defs><path id="F" d="M1235.9 2483.2c3 58.4 10.1 173.7 99.4 173.8 94.3.1 91.5-65.5 81.6-100.1-11.5-40.2-30.3-64.8-37.7-138.5h-.8c-4 5.8-13.9 2.5-13.3-4.5l1.4-16.4c.9-11.8-2.7-21.5-14.5-21.7l-47.9-1.5c-11.5-.2-20.5 9.7-19.3 21.1.6 5.5 1.6 11.8 2.8 18.3 1.3 7.6-8.9 11.3-12.8 4.6-12.3-21.3-31.7-56.7-25.2-104.2.1.1-20.2 43.2-13.7 169.1z"/></defs><clipPath id="G"><use xlink:href="#F"/></clipPath><g fill="#fff"><path d="M1233.3 2376.7s7.7 125.2 30.5 188.4c14.1 38.9 36.1 65.9 93.3 64.2 52.8-1.5 69.1-35.2 69.1-35.2l1 68.9-169.9 39.8-92.3-91.8 40.4-245.2 27.9 10.9z" clip-path="url(#G)"/><path d="M1365.2 2413.8c.5-5.9 1.1-12.5 2-17.4 2.5-13.3-3.3-22.5-15.1-22.7l-47.9.5c-11.5-.2-20.7 9.7-19.5 21.1.6 5.5 1.4 11.8 2.6 18.3l4.6 43.5c1.9 10.3 10.9 17.7 21.4 17.7l31.5-2.6c11.6 0 19.2-8.6 19.7-20.2l.7-38.2z"/></g><path d="M729.6 2921.6c-293.8-5-453.5 151.2-386.6 266.7s151.9 230.7 361.7 226.1c124.2-2.7 107.3-67.1 198.9-79.1s76.6 22.5 171.8 9c132.3-18.7 174.8-101.7 84.4-195.3-124.5-129.1-227-224-430.2-227.4z" class="AW"/><path d="M1096.3 1457.7c-3.5 25.4 19.6 46.2 4.6 94.6-15 48.5-41.5 60-43.9 90-2.3 30 27.7 47.3 11.5 94.6s-115.4-9.2-115.4-9.2l12.7-187 26.5-88.9" class="AL"/><ellipse cx="982.1" cy="1465.3" rx="140.7" ry="28.8" fill="#ffc600"/><path d="M1003.6 1381.6s-40.3-29.7-88.1 2.6-26.5 85.7-75.3 106.6-60 30.9-71.7 82.8-39.8 46.7-81.5 67.9-63.6 40.2-71.1 92.3 26.5 76.2-3.4 121.9c-29.9 45.6-15.5 135.9 28.7 149.8 69.2 21.7 97.2-11.5 128.6-61.3s74.9-39.8 103.8-57.2 37.9-34 50.9-80.3c12.9-46.2-12.7-72.2 7.4-82.9 20.2-10.6 62.8-45.9 62.4-100.3-.3-40.2 37.9-45.9 55.4-64.7 65.6-70.1 33.2-125 33.2-125s-10.2-47-79.3-52.2z" class="AL"/><path d="M725.3 1803.6h.4 0-.1l-.4.1-1.2.2-2.9.5-6.5 1.3c-4.4.9-9.1 2-13.7 3.1-9.2 2.3-18.5 5-27.7 8.1-9.1 3.1-18.2 6.5-27 10.2-8.8 3.8-17.4 7.9-25.7 12.3a296.47 296.47 0 0 0-46.4 30.3c-7.1 5.6-13.8 11.6-20.1 17.9l-2.4 2.4-.7.7-.6.6c-.8.8-1.6 1.8-2.4 2.7-1.6 1.9-3 3.9-4.2 5.8s-2.2 3.7-2.9 5.2-1.1 2.7-1.3 3.4-.3.9-.4.7-.3-.8-.5-1.4c-.3-.6-.7-1-.8-1s-.1.5.5 1.5a25.06 25.06 0 0 0 3.2 3.9c1.6 1.6 3.7 3.4 6.2 5.2 5 3.8 11.8 7.6 19.4 11.3 7.7 3.6 16.3 7.1 25.4 10.2l6.9 2.3c2.3.8 4.7 1.5 7.1 2.2l7.3 2.1 7.4 2.1 30.6 8 1.5.4c36.2 9.3 57.9 46.2 48.6 82.4-8.1 31.5-37.2 52-68.4 50.6-13-.6-26.1-1.8-39.3-3.6-3.3-.4-6.6-.9-10-1.5l-10-1.7c-3.4-.6-6.7-1.3-10.1-2s-6.8-1.4-10.2-2.3c-13.7-3.2-27.6-7.2-41.8-12.3l-5.4-2-2.7-1-2.7-1.1-5.4-2.2-5.5-2.4c-7.3-3.4-14.8-7.1-22.3-11.5s-15.1-9.4-22.7-15.3-15.1-12.7-22.4-20.7c-7.2-8-14.1-17-20-27.3a152.93 152.93 0 0 1-14.2-33.7c-3.4-12-5.1-24.4-5.5-36.4-.4-12.1.9-23.7 3-34.6 2.2-10.9 5.2-21.1 8.9-30.5 3.7-9.5 8-18.3 12.8-26.6s10-16.1 15.7-23.5c2.9-3.7 5.8-7.3 9-10.9l2.4-2.7 2.4-2.6 3.8-4c10.3-10.5 21.1-20.5 32.3-29.8s22.9-18 34.9-25.9c12-8 24.3-15.3 36.8-22.1 12.5-6.7 25.3-12.8 38.2-18.4 12.9-5.5 26-10.5 39.3-14.9s26.7-8.2 40.5-11.5c6.9-1.6 13.8-3.1 21-4.5 3.6-.7 7.2-1.3 11-1.9l5.8-.9 3.1-.4 1.8-.2 2.5-.3c43.6-4.6 82.7 26.9 87.4 70.6 4.6 43.5-27 82.6-70.6 87.3z" class="AI"/><path d="M830.4 1639.2s-77.9-18.2-188.1 11.5c-70.6 19-116.4 53.8-159.8 88.3 16.4-8.4 49.4-3.7 82.3 28.9 29.1 28.7 40.6 80.4 40.6 80.4 23.7-13.1 30.7-14.1 51.6-20.6 68.2-21.3 139.5-7.5 139.5-7.5l103.6-166.5-69.7-14.5z" class="Ac"/><path d="M602.7 1849.8c-4.5-20.5-18.4-45.5-46-70.9-36.1-33.2-61.2-43.1-74.2-39.9 0 0 19.9-16.8 32-24.4 0 0 45.2 4.9 80.1 45.3 24.9 28.8 36.9 50.9 39.3 75.5 0-.1-16.2 5.2-31.2 14.4z" class="AN"/><g class="AG AH AJ"><path d="M1105.3,1876c27.3,56.4,65.9,162.8,69.2,190.4c7.7,64.1-38.1,62.3-38.1,62.3" stroke="#c46c30" stroke-width="142"/><g stroke-width="80.055" class="AK AX"><path d="M603.8 2939.4l191.7-128.1v-383M990 2939.4l-191.7-128.1"/><path d="M795.1 2967.5v-162.6"/></g></g><g class="AN"><circle cx="574.2" cy="2958.6" r="59.2"/><circle cx="795.1" cy="2997.1" r="59.2"/><circle cx="1008.1" cy="2958.6" r="59.2"/></g><g fill="#fa0"><path d="M992.2 2236.5s63.4 17.5 62 147.7-181.5 150.4-285.6 150.4v-223.5l223.6-74.6z"/><path d="M563.6 2236.5s-63.4 17.5-62 147.7 181.5 150.4 285.6 150.4v-223.5l-223.6-74.6z"/></g><ellipse cx="777.7" cy="2295.1" rx="259.1" ry="109.4" class="AY"/><path d="M888.9 2875.5L861 2995l74.9 82.1 51.9-36.9 40.6-152.8zm-212.8 146.9s10.9-57.7 38.6-116.9l-149.5 2.5s-20.1 36.7-25.6 135.2 136.5-20.8 136.5-20.8z" class="AI"/><g class="AU"><path d="M853.3 3058.4s-2.8 17.4-1.3 27.6c1 6.8 6.6 12.2 7 23.4.3 8.9 2.5 12.9 5.1 13.9 2.3 1 4.4 3 4 8.8-.5 5.8 1.2 13.5 6.1 16.6 4.1 2.6 8.9 5.7 8.8 15.7-.1 9.4 2.7 15.9 6.8 18.9 4.6 3.4 9.9 2.6 10.1 14.1.1 8.3 2.9 15 7.7 17.3 4.7 2.3 11.2 2.4 11.5 14.1s6.3 19.3 13.6 19.9c7.2.6 12.2 2.3 15.5 12.9 3.1 9.8 8.2 12.4 11.4 12.6s10.6-3.2 15.6 2.3c4.9 5.5 7 9.5 13.7 9.8s8.5-6 14.9-5.4c6.4.5 6.9 8.4 14.7 9 7.8.5 9.4-8.2 15.3-8.9 7-.9 7.2 5.4 13.9 5.1 9.3-.5 8.4-9.3 14.7-10.2s5.9 3.4 13.4 3c7.3-.4 8.6-8.7 8.6-8.7l2.5-21-233.6-190.8z"/><path d="M856.8 2986.9s-5.5 57.1-2.9 76.1 12.2 44.1 37.2 96.5 62.6 105.6 134 106.4c51.2.6 63-18.3 63-18.3s20.5-42.7-2.2-74.4c0 0-8.5-12.9-23-22.7 0 0-27.6-29.2-35.2-47.7s-1.5-40.2-12-58.4l-100.8-4.1-58.1-53.4z"/></g><g class="AS"><use xlink:href="#B"/><use xlink:href="#B" x="15.5" y="36.2"/><path d="M1011.2 3085.5c1.1 4-.7 7.5-3.8 7.7-3.2.2-7.3-3.3-8.3-7.7-.9-4.3 1.5-7.5 4.7-7.3 2.9.2 6.3 3.4 7.4 7.3zm13.2 30.8c2 3.9 1.6 8.6-.9 10.3-2.6 1.8-7-.1-9.1-4.6-2-4.3-.9-9 1.8-10.3 2.5-1.2 6.2.7 8.2 4.6z"/></g><path d="M1015.4 3049.4s15.5-15.1 2.9-28.6l-7.8 16 4.9 12.6z" class="Ad"/><path d="M922.3 3054.4s-1.5-26.2-7.7-49.5 1.7-42.4 27.5-40.8 38.3 2.2 52.5.2c18.8-2.6 42.1 4.6 29.1 39.9-11.6 31.3-8.2 45.2-8.2 45.2s-27.2 33.8-93.2 5z" class="AU"/><path d="M928.9 3056.9s-17.9 1.9-44.4-23.6c-23.2-22.4-29.3-43.7-28.5-57.6s5.1-20 14.5-21.8c0 0 .2 22.3 18.6 40.9 21.2 21.5 37.7 38.2 39.8 62.1z" class="Ad"/><g stroke="#f4c58d" class="AG AH AJ Al"><path d="M1062.9 3150.4c-23.2-12.8-60.7-14.7-87.6-2.5-26.8 12.3-35.1 31.6-38.2 45.2s-4.6 30.5-4.6 30.5"/><path d="M853.9 3062.9c2.5 18.9 12.2 44.1 37.2 96.5s62.6 105.6 134 106.4c51.2.6 63-18.3 63-18.3"/></g><g class="AU"><path d="M748.8 3313v14.5c0 5.9-1 11.7-7.8 13.2-7.7 1.7-7.6-2.4-15.9-1-9.7 1.7-7.2 17.6-20.6 17.6-11.7 0-9.8-5.6-19-4.4-10.3 1.4-9.9 11.7-21 11.7s-9.2-7.8-21.8-8.1c-10.4-.2-8.9 6.1-20 5.2s-10-14.4-19.5-15.8c-8.1-1.2-6.8 2.6-14.9 1.9s-10.5-7.3-13.5-17.6c-2.2-7.5-4.5-15.7-10.9-14.9-4.6.6-11-7.1-11.8-16s-2.5-21.4-7.4-23c-6.6-2.2-8-22.5-7.6-30.8s.3-15.4-4.5-18c-5.2-2.8-3.6-19-3.4-27.2.3-9.8-4.4-13.8-4.8-23.4s2.1-18.3.8-31"/><path d="M537.4 2978.2s-26 34.7-12.4 164.8c14.2 136.5 43.6 193.5 114.9 197.3 90.2 4.7 105.5-23.2 109-27.2s4.5-27.3 2.5-45.4c-2-18.2-14.1-39.4-30.3-56.6 0 0-21.4-38.9-26.1-63.3-7.3-38.1-4.7-73-21.4-92.2l-78.7 3.8-57.5-81.2z"/></g><path d="M579 3070.6s-29-16.8-42.8-90.4c0 0-.4-38.8 18.8-43.2 0 0-5 33.5 12 67.9l12 65.7zm92.3 3s28.7-21.2 11-51.2c0 0-3.5 10.6-6.7 25.6s-4.3 25.6-4.3 25.6z" class="Ad"/><g class="AS"><circle cx="605.7" cy="3128" r="8.7"/><circle cx="620.1" cy="3173.5" r="8.7"/><path d="M669.1 3122.5c.5 4.8-2.6 8.7-6.3 8.7s-7.6-3.9-7.9-8.7c-.3-4.7 2.9-8.4 6.5-8.4s7.2 3.7 7.7 8.4zm9.3 45.4c.5 4.8-2.6 8.7-6.3 8.7s-7.6-3.9-7.9-8.7c-.3-4.7 2.9-8.4 6.5-8.4 3.7 0 7.3 3.7 7.7 8.4z"/></g><g stroke="#f4c58d" class="AG AH AJ Al"><path d="M721 3211s-20.2-18.1-69.2-14.8c-45.6 3-66.1 22.3-74.8 33.1-9.1 11.4-17.2 25.5-19.6 55.3"/><path d="M524.9,3143c14.2,136.5,43.6,193.5,114.9,197.3c90.2,4.7,105.5-23.2,109-27.2"/></g><path d="M592.3 3088.6c-6.8-3.9-11.5-10.4-13.3-18l-11.7-57c-3.2-13.6 6.5-25.2 16.7-25.2h80.9c11.2 0 29.8 13.3 22 33.9-5.7 14.9-10.3 21.1-14.4 42.1-3.3 16.9-16 29.6-40.3 33.2-16.2 2.1-30.6-3.7-39.9-9z" class="AU"/><g class="AS"><path d="M866.4 2896.9l12.1-54.9 33.9-166 9.5-46.2 9.6-46.2 35.7-185.1.1-.3c13.7-64.4 77.1-105.4 141.4-91.7 64.4 13.7 102.9 95.2 99.2 112.1-.9 4-1.1 6.2-2.3 10l-20.7 76.8-19.5 69.8c-25.7 81.6-128 364.3-128 364.3s-25.9 24.9-108.4 3.9c-62.7-15.9-62.6-46.5-62.6-46.5z"/><path d="M542.1 2899.5c2.9-12.7 6.2-22.3 9-30.7 5.7-17 11.7-33.2 17.9-49.2 6.1-16 12.5-31.6 19-47.1l19.7-46 20.2-45.3 20.8-44.8 21.1-44.5 21.5-44.1 21.8-43.9 22.2-43.7 22.6-43.5 11.5-21.7 5.8-10.9 6-11.1c32.1-59.4 106.4-81.6 165.8-49.4 59.4 32.1 81.6 106.4 49.4 165.8-2.1 3.8-4.3 7.5-6.7 10.9l-.2.2-6.5 9.5-6.7 9.8-13.3 19.6-25.7 40-25.3 40.4-25.1 40.4-24.8 40.5-24.6 40.6-24.2 40.6-23.7 40.6-23 40.6-21.9 40.4c-7.1 13.4-38.2 68.2-40.9 74.3 0 0-36 14-82.4-2.4-68.3-23.8-79.3-75.9-79.3-75.9z"/><path d="M1207.9 2419.2c19-97-134.4-275.6-155-291.9s-42-59.1-42-59.1l-307.4-12.8s-115.6 77.9-109.6 202.9c3.7 76.5 80.5 132.4 124 156.3 16.4 9 28.8 25.4 19 42.4h0s73.6-49.7 203.8-53.1c0 0 151.2-49.4 254 18.3l13.2-3z"/></g><path d="M857.7 2088.2l46-55.2 33 49.3z" class="Ae"/><path d="M929.8 2591.9l51.4-81.8s74.1-115 47.3-185.8c-23.7-62.7-57-93.9-57-93.9s67.5 63.4 85.4 115.4c23.2 67.7-12.5 152.2-74.4 253.4l-82.7 136.1 30-143.4z" class="Af"/><path d="M778.4 1510.3s13.9 4.9 70.1-16.7" class="AG AH AJ AK AO Am"/><path d="M768.4 1869.8s-19.4-85.1 32.1-169.2c21.4-34.9 66.6-54.7 104.3-57.5 31.7-2.3 75.2 11.3 75.2 11.3s16.2 23.9 29.6 30.9c86.5 44.9 62 105.7 30.4 166.4-41.3 79.2-101.7 87.6-101.7 87.6l-169.9-69.5z" fill="#fff"/><path d="M1023.7 1588.8l-11.9 88.3v.1l-2.2 8.1-38.8-11.3-66-30.8 5-6.9 23.1-71.4z" class="AI"/><defs><path id="H" d="M1023.7 1588.8l-11.9 88.3v.1l-2.2 8.1-37.3-31.7-67.5-10.2 5-7.1 19.5-60.3z"/></defs><clipPath id="I"><use xlink:href="#H"/></clipPath><path d="M1029.6 1591.7l-5.7 73.9c-30.1-27.7-73.6-63-80.6-80.5l86.3 6.6z" clip-path="url(#I)" class="AM"/><path d="M764.7 1909.5l7.3-24.6c2.3-7.6 11-11.2 18-7.4 28.7 15.9 100 50.2 179.4 49.4 8.1-.1 14.1 7.4 12.3 15.2l-5.3 23.1c-1.2 5.2-5.5 9-10.8 9.6-25.1 2.7-100.5 4.5-195.2-51.1-4.9-2.8-7.3-8.7-5.7-14.2z" class="Af"/><path d="M907.9 1973.6h0c-11.6-3.5-17-18.3-12.1-32.9h0c4.9-14.6 18.4-23.6 30-20h0c11.6 3.5 17 18.3 12.1 32.9h0c-4.9 14.5-18.4 23.6-30 20z" stroke="#ffc600" stroke-width="11.305" class="AG AH"/><g class="AI"><path d="M907.3 1494.3l-3.7 48.5s-14.9 2.4-27.8-7.4c-13-9.9-8.3-28.2 1.3-35.7 9.7-7.5 30.2-5.4 30.2-5.4zm150 49.9l3.7-48.5s14.9-2.4 27.8 7.4c13 9.9 8.3 28.2-1.3 35.7s-30.2 5.4-30.2 5.4z"/><path d="M1077.4 1539.6c-.1.4-.2.7-.4 1.1-.4 1.4-1 2.9-1.6 4.3-.2.7-.5 1.3-.8 2-2.5 6.5-5.8 12.5-9.6 18.2-.7 1-1.4 2-2.2 3-1.5 2-3 3.9-4.6 5.8-16.1 18.9-39.2 31.1-65.2 32.1-30.4 1.3-57.8-13.1-75-36.3a94.78 94.78 0 0 1-9.7-16.3c-1.3-2.7-2.5-5.4-3.5-8.3-1-2.8-1.9-5.8-2.7-8.7-1.8-6.9-2.8-14.1-3.1-21.5v-.6c-1.4-52.8 38.3-97.3 88.8-99.4 28.2-1.2 53.8 11.1 71.2 31.5 7.1 8.3 12.7 17.8 16.7 28.3 0 .2.1.3.2.5.4 1.1.8 2.2 1.1 3.3a93.73 93.73 0 0 1 4.4 20.8l.5 7.4c.4 11.4-1.2 22.5-4.5 32.8z"/></g><g class="AG AH AJ AK"><path d="M1003.2 1532.6c4.3-1.7 6.2-7.1 3.4-11.1 0 0-10.1-14.3-12-23m-4.6 36.2l11.5-1.6c.6-.1 1.1-.2 1.7-.4" class="AT Ag"/><g class="AR"><path d="M1050.6 1475s-10.2-17-33.6-8.6m-77.3 11s9.3-17.5 33.1-10.3" class="Ag"/><path d="M1014.4 1496.7c1.9-3.1 4.9-5.6 8.6-6.9 8.5-3 17.8 1.1 20.7 9.3l4.7-2m-71.5.2c-1.7-3.2-4.6-5.8-8.2-7.3-8.3-3.5-17.8.2-21.2 8.2l-4.6-2.3" stroke-width="6.179"/></g></g><g class="Aa"><circle cx="962.6" cy="1505.9" r="15.1"/><circle cx="1028.7" cy="1506" r="15.1"/></g><circle cx="1037.1" cy="1505.8" r="7"/><circle cx="971.1" cy="1505.6" r="7"/><path d="M896.1 1493.8c-.4-2.2 17.3 4.5 32.6-34.3 0 0 33 12 70.1-22.3 0 0-15.3 21.2 4.6 29.5s45.9-31.7 45.9-31.7-8.2 26.2 7.3 27.4c15.6 1.3 43.2-29.2 24.5-60-20.1-33.2-76.3-20.1-89.4-9.3.1.1-91.9-32-95.6 100.7z" class="AL"/><path d="M1103.6 1923.8c-17.1 9.4-17 21.3-35.3 14.5l-12.8-16.1s-16.9-13.6-37.1-23.9c0 0-1.3 2.8-4.2 7.3-35.7 54.9-36.7 123.2-1.2 178.2.5.7 2 4.1 2.4 4.8 0 0-63.2 10.9-160.6-1s-179.3-36.3-179.3-36.3 14.8-62.7 34-111.1c10.7-26.9 18.7-54.8 23.5-83.4l7.3-44.3s-11.2-39.9-41.5-24.5c0 0-67.2-167 167.8-149.5l145.7 38.2s120.9 55.3 186.4 232.1c.2.1-7.7-33-95.1 15z" class="Ac"/><path d="M1025 1712.7l-157.5-45.1 5.5 244.5z" fill="#fff"/><path d="M866.8 1638.6l5.7 18.7c19.8 64.7 96.1 92.3 152.7 55.3l19.1-13.9-.6-2.1c-50.6-38.9-113.4-56.1-177.2-58h.3z" class="AI"/><path d="M1012.6 1676.4l-106.1 159.9-1.5-194.4s-66.8-8.5-153.3-8.4c0 0-6.7 109.3-55.6 262.7-42.2 132.4-61.8 178-71.5 212.3-3 10.5 9.2 16.7 19.9 14.6 39.4-7.8 105.3-29.2 243.2-18.9 93.2 6.9 147.7 20.5 167 30 8.1 4 16.4 10.1 13.5-4.8-6.7-35.4-29.2-115.4-13.5-194.3 21.1-105.9 61.6-171.4 61.6-171.4s-39.3-51.2-103.7-87.3z" class="Ac"/><defs><path id="J" d="M1012.6 1676.4l-106.1 159.9-1.5-194.4s-66.8-6.6-150.1-8.4c0 0-10 109.4-58.9 262.8-42 131.7-57.3 164.4-67.2 198.6-5.8 20.2 5.3 13.8 17.4 18 32.9 11.5 111.6 45.4 219.8 53.1 93.3 6.6 162.2 2.2 199.4-1.7 15.1-1.6 10.9-25.3 8.1-40.3-8.6-46.2-34.5-110-18.8-188.9 21.1-105.9 61.6-171.8 61.6-171.8s-39.1-51.1-103.7-86.9z"/></defs><clipPath id="K"><use xlink:href="#J"/></clipPath><path d="M1076.4 1938.4s-44-33.5-97.1-37.6c-61.2-4.8-99.5-7.3-159.7-35.7-59.3-28-104.9-21.4-140.9-8.3m412.2 220.9s-64.5-22.5-116.9-31.9c-69.7-12.6-121-11.4-195.3-6.2-76.7 5.4-130.9 21.4-171.5 36.7m488.4-378.9s-45.3 49.2-90.7 199.2" clip-path="url(#K)" class="AG AH Ah Ai"/><g fill="#ffc600"><path d="M860.4 1456c-.7-68.7 54.5-125 123.2-125.7s125 54.5 125.7 123.2c0 0-31.8-18-108.7-17.9-76.9-.1-140.2 20.4-140.2 20.4z"/><path d="M1108.4 1439.6l-2-9.7c-124-36.1-244.5 6-244.5 6-.4 1.5-.7 3.5-.9 5.7-.8 8.1-5 15.5-11.7 20.1-.6.4-.9.7-.9.7l12-.1c31.8-12.1 80.8-22.5 144.5-24.3 63.7-1.9 116.5 23.9 116.5 23.9s.9-4.3-4.3-8.2c-4.5-3.6-7.6-8.6-8.7-14.1z"/></g><defs><path id="L" d="M1120.7 1927.2c-17.9 7.8-43.7 37.1-50.3 47.2l-17.4-42.8s-14.2-23-34.4-33.3c0 0-1.3 2.8-4.2 7.3-35.7 54.9-36.7 123.2-1.2 178.2.5.7 2 4.1 2.4 4.8 0 0-63.2 10.9-160.6-1s-179.3-36.3-179.3-36.3 14.8-62.7 34-111.1c10.7-26.9 18.7-54.8 23.5-83.4l7.3-44.3s19.5-58.3-10.8-42.9c0 0-97.9-148.7 137.1-131.1l180 62.2s111.3 80.6 152 208.1c.1.1-5.5-13.3-78.1 18.4z"/></defs><clipPath id="M"><use xlink:href="#L"/></clipPath><path d="M1230 1893.6s-46.2-7-87.4 9.3c-31.9 12.7-50 28.4-63.2 42.1" class="AG AH AV Ah Ai"/><path d="M1084.3 1944.6s-.9-41.9-10.3-76.3c0 0-21.2 51-18.6 77.7s28.9-1.4 28.9-1.4z" fill="#d8562e" class="AV"/><path d="M1247.5 1887.1s-51.7-4.5-92.9 11.8c-31.9 12.7-67.8 33.4-83.9 59.6" class="AG AH AV Ah Ai"/><path d="M1081.6 1909.8s4.8 47.1-6.9 75.6l-20.1-49.6.4-1.9c3.5-3.2 17.6-17 26.6-24.1z" class="AV Aj"/><path d="M690.1 1619s33.9 15.3 67.8-12" class="AG AH AJ AK AO Am"/><path d="M787.8 1863.4l-48.4-7.4c20.7-135.6 10.2-221.7 10.1-222.6l26.6.4c16 .3 23.5.8 23.5.8.5 3.9 10.2 85.3-11.8 228.8z" class="AN"/><g class="AI"><path d="M1032.4 2026.5c5.7-1.1 11.9-1.5 18.2-1s12.9 2 19 4.4c6.2 2.4 11.9 5.8 16.9 9.7s9.4 8.2 13.2 12.7l2.3 2.6c10.8 12.6 9.3 31.6-3.3 42.5-12.6 10.8-31.6 9.3-42.5-3.3-1.9-2.3-3.5-4.9-4.7-7.5-.8-1.9-1.7-3.6-2.5-5-.9-1.4-1.7-2.5-2.7-3.5s-2.1-1.9-3.6-2.6-3.3-1.2-5.4-1.5l-3.7-.5c-13.1-1.7-22.3-13.6-20.6-26.7 1.4-10.4 9.5-18.5 19.4-20.3z"/><path d="M1046.9 2072.5c6-1.5 12.4-2.4 19.2-2.3a65.41 65.41 0 0 1 20.6 3.7c6.7 2.4 13.2 5.8 18.6 10 5.5 4.1 10.2 8.8 14.3 13.7l1.9 2.3c10.7 12.6 9.2 31.6-3.5 42.3s-31.6 9.2-42.3-3.5c-1.8-2.1-3.2-4.4-4.3-6.8-.9-2-1.9-3.8-2.8-5.2-.9-1.5-1.9-2.5-2.9-3.5-1.1-1-2.4-1.8-4.1-2.5-1.7-.6-3.9-1-6.3-1.1l-3.2-.1c-13.2-.4-23.5-11.4-23.1-24.6.2-10.9 7.8-19.9 17.9-22.4z"/><path d="M1060.8 2117.9c9.1-2.3 17.7-2.5 25.9-1.7 8.2.9 15.9 2.9 23.4 5.9 7.4 3 14.4 6.9 20.9 11.8a92.84 92.84 0 0 1 17.3 17l.8 1c9.6 12.2 7.5 29.8-4.7 39.3s-29.8 7.5-39.3-4.7c-.8-1-1.6-2.2-2.2-3.2-1.7-2.8-3.6-5.5-6-7.9s-5.1-4.5-8.1-6.2-6.2-3.1-9.3-3.9-6.1-1.1-8.2-1l-3.8.1c-13 .4-24-9.8-24.4-22.8-.5-11.3 7.1-21 17.7-23.7z"/><path d="M1090.8 2069s11.7 7.6 14.7 20.7c1.5 6.5 4.3 12.6 8.7 17.7 4 4.6 8 11.5 8.8 20.5.7 7.5 3.1 14.6 7.4 20.8 5.5 7.9 10.2 21.1.5 39.6l-40.1-119.3z"/></g><path d="M1080.1 1962l-3.1 30.1-6.7-17.6c.1-.1 4.7-6.7 9.8-12.5z" opacity=".67" class="AM"/><g class="AI"><path d="M688.5 1964.1h.2 0-.2l-.4.1-1.2.1c-.8 0-1.7.1-2.6.2-1.7.2-3.5.5-5.1 1-3.3.9-6.1 2.2-8.4 3.7l-3.1 2.5c-.9.9-1.7 1.9-2.4 2.9-1.4 2.1-2.6 4.5-3.6 7.4-4.8 14.1-20.1 21.6-34.1 16.8-14.1-4.8-21.6-20.1-16.8-34.1.5-1.6 1.2-3.1 2-4.5l1.1-1.9c3.9-6.9 9-13.6 15.2-19.3 3.1-2.8 6.5-5.4 10-7.7a83.14 83.14 0 0 1 11.1-5.7c7.6-3.1 15.3-4.8 22.9-5.4 3.8-.3 7.5-.3 11.2-.1 1.9.1 3.7.3 5.6.5.9.1 1.9.2 2.9.4l1.5.3 2.1.4c11.7 2.2 19.5 13.4 17.3 25.2-2.2 11.6-13.5 19.4-25.2 17.2z"/><path d="M676.6 2004h.2 0-.2l-.4.1-1.2.1c-.8 0-1.7.1-2.6.2-1.7.2-3.5.5-5.1 1-3.3.9-6.1 2.2-8.4 3.7l-3.1 2.5c-.9.9-1.7 1.9-2.4 2.9-1.4 2.1-2.6 4.5-3.6 7.4-4.8 14.1-20.1 21.6-34.1 16.8-14.1-4.8-21.6-20.1-16.8-34.1.5-1.6 1.2-3.1 2-4.5l1.1-1.9c3.9-6.9 9-13.6 15.2-19.3 3.1-2.8 6.5-5.4 10-7.7a83.14 83.14 0 0 1 11.1-5.7c7.6-3.1 15.3-4.8 22.9-5.4 3.8-.3 7.5-.3 11.2-.1 1.9.1 3.7.3 5.6.5.9.1 1.9.2 2.9.4l1.5.3 2.1.4c11.7 2.2 19.5 13.4 17.3 25.2-2.2 11.6-13.4 19.4-25.2 17.2z"/><path d="M665.6 2043.9h.2 0-.1-.4l-1.1.1c-.8.1-1.6.1-2.4.3-1.7.2-3.3.6-4.9 1-3.2.9-5.9 2.3-8.3 3.8-2.3 1.6-4.3 3.5-5.9 5.7-1.6 2.3-3 4.9-4.2 7.9-5 13-19.7 19.5-32.7 14.4-13-5-19.5-19.7-14.4-32.7.4-1 .9-2 1.4-2.9l.7-1.2c3.6-6.5 8.2-12.9 13.8-18.5 5.7-5.6 12.3-10.3 19.4-13.8 7.1-3.4 14.6-5.6 21.9-6.7 3.7-.5 7.4-.8 11.1-.8 1.8 0 3.7 0 5.6.2.9.1 1.9.1 2.9.2l1.6.2.9.1 1.3.2c11.7 1.7 19.8 12.6 18.1 24.3-1.9 11.8-12.8 19.9-24.5 18.2z"/><path d="M620.9 1948.8s-10.4 9.9-11.5 24.1c-.5 7.1-2.4 14-6 20-3.2 5.5-6.2 13.3-5.7 23 .4 8-1 15.9-4.3 23-4.3 9.1-7 23.9 5.3 41.8l22.2-131.9z"/></g><path d="M983.3,1562.5c-12.6-1.9-21.3-8.7-26.6-14.4" class="AG AH AJ AK AT Ag"/><path d="M1685.3 3362.1c60.5 24.2 151.2 14.9 186.7 26.1s-5.5 81.7 134.4 70.9c231.6-17.8 408.5-132.5 466.8-215.3 83.5-118.5-254-154.3-483.6-139.3-229.6 14.9-388.3 224-304.3 257.6z" class="AW"/><path d="M1748.1 1766.6c-44.9 73.7-94.4 160.6-100.1 193.4-9.5 55.3 23.2 84 41.8 95.5" stroke="#e60278" stroke-width="162.885" class="AG AH AJ"/><path d="M1837.3 1654.7s-86.4-10.6-145.9 53.1c-40.7 43.6-47 199.6 20.9 166.2 49.8-24.5 101.2-30.9 101.2-30.9l23.8-188.4z" class="AP"/><g stroke-width="86.64" class="AG AH AJ AK AX"><path d="M1935 3165.5l207.5-138.6v-508.1m210.6 646.7l-207.5-138.6"/><path d="M2142.1 3195.9V3020"/></g><g class="AN"><circle cx="1903" cy="3186.3" r="64.1"/><circle cx="2142.1" cy="3227.9" r="64.1"/><circle cx="2372.6" cy="3186.3" r="64.1"/></g><g fill="#fa0"><path d="M2257.5 2340.1s68.8 19 67.3 160.4-197.1 163.3-310.2 163.3v-242.7l242.9-81z"/><path d="M1792.1 2340.1s-68.8 19-67.3 160.4c1.6 141.4 197.1 163.3 310.2 163.3v-242.7l-242.9-81z"/></g><ellipse cx="2024.6" cy="2403.7" rx="281.3" ry="118.8" class="AY"/><path d="M1835.1 1328.2s71.8-34 132 29.7c60 63.4 44.4 83 106.4 95 73.6 14.3 98 69.8 99.7 133.3 1.2 46.5 16.6 61 51.9 94.1 32.2 30.3 42.7 60.3 28.6 122.1-8.9 39.2-148.9-45.5-141-9.6 11.9 54.3 14 94.4-26 123.5-29.4 21.4 58.5 149.5 10.8 102.5-27.3-27-18.9-47.4-79.7-100.6-45.7-39.9-42.4-45.1-56.1-91.9-15.5-52.9-33-46-85.9-84.2-46-33.3-2.8-69.5-50.5-97.8-74.6-44-46-114.4-43.3-142.6 3-35.2-53.8-155.6 53.1-173.5z" class="AL"/><path d="M2424.4 1843.8c7.8 6.9 15.5 14.4 23 22.7s14.7 17.6 21.5 28c3.4 5.2 6.7 10.7 9.8 16.6.8 1.4 1.5 3 2.3 4.5.7 1.5 1.5 3 2.2 4.6l2.1 4.7 2 4.9c2.6 6.7 4.9 13.7 6.8 21.2 1.8 7.5 3.2 15.3 4 23.5s.9 16.6.4 25.1a154.73 154.73 0 0 1-3.9 25.3c-2 8.3-4.8 16.3-8 23.9s-7 14.6-11 21.2-8.4 12.5-12.9 18.1c-2.2 2.7-4.5 5.5-6.8 7.9l-3.5 3.7-3.5 3.5c-9.4 9.2-19 16.8-28.5 23.3-18.9 13-37.4 22.2-55.4 29.4-9 3.6-17.9 6.7-26.8 9.5l-13.2 3.8c-4.4 1.2-8.7 2.2-13.1 3.3-17.3 4.1-34.4 7.2-51.2 9.7l-12.6 1.7-12.5 1.3c-8.3.7-16.7 1.2-25 1.3-39.7.2-72-31.7-72.3-71.4-.2-31.7 20.2-58.7 48.6-68.4l1.8-.6c6.8-2.3 13.5-4.3 20.2-6.4l19.8-6c13.1-3.9 25.7-8.3 37.6-12.8 2.9-1.2 5.9-2.3 8.8-3.6l4.3-1.8 4.2-1.8c5.5-2.4 10.8-4.9 15.8-7.4s9.6-5 13.8-7.5 7.9-5 10.9-7.3c6.1-4.6 8.8-8.7 8.3-8.6-.1 0-.3.3-.6.8s-.6 1.3-.8 2.1c-.3.9-.4 1.8-.5 2.7s-.1 1.7-.1 2.2c0 1.1.2 1.3-.2.3-.1-.1-.1-.2-.1-.4-.1-.2-.2-.3-.2-.5s-.2-.4-.3-.6l-.3-.6c-.1-.2-.3-.5-.4-.7s-.3-.5-.4-.8c-.3-.5-.7-1.1-1-1.7-1.5-2.4-3.7-5.3-6.3-8.4-2.7-3.1-5.8-6.4-9.2-9.8l-1.2-1.1c-33.3-32.1-34.3-85.2-2.1-118.5 31.2-31.8 82.3-33.5 115.7-4.1z" class="AI"/><path d="M1795.2 2396.4l6.2 12.6 6.1 12.3 12 24.6 23.5 49.2 23 49.4 22.6 49.7 22.2 49.9 21.7 50.3 21.3 50.7 20.7 51.2 20 52 19.1 53.2c6.2 18.1 12.1 36.4 17.7 55.6 2.8 9.6 5.5 19.4 8.1 29.7s5.1 21.1 7.2 33.1c1.1 6 2.1 12.4 2.9 19.6s1.5 15.1 1.5 25.4v1.9 1 .4.3l-.2 2.6c-.1 1.8-.2 3.5-.4 5.3l-.5 5.3-.6 5.2a239.77 239.77 0 0 1-3.6 20.6c-3 13.5-7.1 26.5-12.1 38.7-5 12.3-10.9 23.8-17.3 34.5-13 21.5-28.3 40-44.8 56.1-8.3 8.1-16.9 15.5-25.9 22.5-4.5 3.5-9.1 6.8-13.9 10.1l-7.4 4.9-9.1 5.7c-29.3 21.5-70.4 15.2-91.9-14s-15.2-70.4 14-91.9l-.3.1c-.1.1-.2.1-.1.1v-.1c0-.1.1-.2.1-.3.1-.2.3-.5.5-.8l1.2-1.7 2.8-3.9c1.9-2.6 3.8-5.4 5.7-8.2s3.7-5.6 5.4-8.5 3.4-5.7 4.9-8.6c6.3-11.4 11.1-22.8 14-33.3 3-10.5 4-20.1 3.5-28.4-.1-2.1-.3-4.1-.6-6.1l-.2-1.5-.3-1.4-.3-1.4-.1-.7v-.1.1l-.1.3c-.3 1.4-.6.3-1.2-1.3l-2.4-6.7c-2-5.4-4.5-11.8-7.3-18.6-2.8-6.7-6-13.8-9.3-21-6.7-14.4-14-29.2-21.7-44.2l-23.9-45.1-25.2-45.3-26.1-45.3-26.6-45.3-27.1-45.2-27.4-45.2-27.7-45.1-27.9-45-28-44.9-14-22.4-7-11.1-6.9-10.8-.1-.1c-39.4-62.1-21-144.3 41.1-183.7s144.3-21 183.7 41.1c2.5 3.7 4.8 7.8 6.8 11.9z" class="AM"/><path d="M1833 3341.8c-78.9 24.1-128.1 2.9-134.2-17.2-4.6-15.2 17.7-43.2 53.9-74.5 17.1-14.8 35.5-31 50.9-45.9 22.4-21.5 34.4-32.6 41.3-41.8 0 0-8.3 11.9-20.7 28.4-11.4 15.1-16.1 23-7 32.2 7 7 22.1 7.4 39 2.8 84.5-23.1 195.2-154.9 195.2-154.9s5 42-1.2 107.4c-3.8 40.4-26.4 76.6-60.9 97.9-31.2 19.3-80.1 42.3-156.3 65.6z" class="Af"/><path d="M2001.3 2436.9l5.6 12.5 5.5 12.2 10.8 24.4 21.1 49 20.7 49.1 20.3 49.4 19.9 49.6 19.4 49.9 19 50.2 18.4 50.8 17.8 51.4 16.9 52.5c5.4 17.8 10.6 35.9 15.5 54.7 2.5 9.4 4.8 19.1 7.1 29.1 2.2 10.1 4.3 20.5 6.2 32.1.9 5.8 1.8 11.9 2.5 18.7.2 1.7.3 3.5.5 5.2.2 1.8.3 3.7.4 5.6l.3 6 .1 3.3v1.6 1.8 3.6.4.3.6l-.1 1.2-.3 4.8-.9 9.5c-.7 6.3-1.6 12.5-2.8 18.6-4.6 24.5-12.4 47.6-22.3 68.7s-22 40.3-35.5 57.8c-3.4 4.4-6.9 8.6-10.5 12.8s-7.3 8.2-11.1 12.2-7.8 7.9-11.9 11.7l-6.4 5.8-3.5 3-1.9 1.6-1.1.9c-.4.3-.7.6-1.5 1.4-25.5 25.9-67.1 26.2-92.9.8-25.9-25.5-26.2-67.1-.8-92.9-.4.4-.4.3-.4.2s0-.2.1-.3c.1-.2.2-.5.3-.8l.9-1.9 2.1-4.2 4.3-8.9c2.9-6 5.4-12.3 7.7-18.5 4.7-12.4 8.2-24.7 10.2-36.4 1.1-5.8 1.7-11.6 2.2-17.1.3-5.5.4-10.8.1-15.9a87.65 87.65 0 0 0-.6-7.5c-.1-1.2-.3-2.4-.5-3.6l-.3-1.8-.1-.4v-.2-.1h0c0 .1-.1.2-.1.3v.1h-.1-.1c-.1-.1-.2-.3-.3-.5-.1-.3-.2-.5-.4-.9l-.4-1.3-2.3-7.1c-1.9-5.5-4.2-12-6.9-18.7-2.6-6.7-5.6-13.8-8.6-20.9-6.2-14.3-13-29.1-20.1-43.9-14.2-29.7-29.5-59.9-45.3-90l-24.1-45.2-24.5-45.2-25-45.1-25.3-45.1-25.6-45-25.7-45-25.8-44.9-12.9-22.4-6.5-11.1-6.3-10.8-.1-.1c-37.1-63.4-15.8-145 47.6-182.1s145-15.8 182.1 47.6l6.2 12.8z" class="Ab"/><path d="M2130 3381s-102 84-166.3 53.4c-37-17.6 7.3-121.2 27.5-160.5 15.2-29.7 40.2-74.2 47.1-83.4 0 0-11.7 27.4-17.4 47.3-6.3 22-14.4 43 4.7 50.8 86.2 35.2 205.2-203.7 205.2-203.7s7.9 45.7 6 109c-1 35.3-11.7 69.7-30.9 99.3-17.3 26.7-42.8 60-75.9 87.8z" class="AS"/><path d="M1756.8,1429.9c4-28.6,10.6-57.3,10.6-57.3c19-39.9,48.9-67.2,91.1-70.4" class="AG AH AJ AR An"/><g class="Aj"><path d="M1760 1416.8c21.3-1.6 32.4 22.8 34.7 53.9 2.4 31-4.9 56.9-26.2 58.5l-18.6 1-9.9-111.1 20-2.3z"/><path d="M1771.4 1472.4c-2.4-31-11.4-55-32.1-53.4s-37.3 27.5-34.9 58.5 24.2 54 44.8 52.4c20.7-1.6 24.6-26.4 22.2-57.5z"/></g><path d="M1797.8 1471.2c-2.4-31-15.7-53.6-36.5-54.5-23.4-1-35.6 28-33.2 59s21 54.9 41.7 53.3 30.3-26.8 28-57.8z"/><path d="M1547.7 2495.6c-46.9-164.9 154.5-328.8 178.1-344.8s50.3-62.7 50.3-62.7l334.5 10.2s119.3 93.6 103 228.8c-10 82.7-97.7 137.4-146.8 159.8-18.5 8.5-33.3 25.3-23.9 44.5h0s-76-59.7-216.9-73.6c0 0-153.7-30.7-270.5 34.6" class="Ae"/><path d="M1850.2 1547.5l-.1 79.7v.1l1.4 41 46.3-35.5 89.8 25.5-8.2-41.3-29.2-154.3z" class="AI"/><path d="M1847.2 1642.8c18.1-12.2 60.7-12.2 60.7-12.2s40.4 23.5 82.7 25.8c41.8 2.3 106.4 10.7 120 79.8 7.8 39.5 3.6 125.5-5.4 154.1-18.6 59.1-17 122.7 3.2 181.3l19 59.5s-105.3-24.3-217.8-32.2c-119.9-8.4-141.9 6.9-141.9 6.9l27-90.1c18-49.9 17.9-91 13.9-128.5-4.3-40.9 4.4-62.6 4.4-89.7 0-27.4 1.7-107.2 22.4-142.5l11.8-12.2z" fill="#fff"/><defs><path id="N" d="M1849.9 1538.4l.2 96.7-.2.1 1.6 41 46.4-37.7 89.7 27.7-8.2-41.3-29.9-130.3z"/></defs><clipPath id="O"><use xlink:href="#N"/></clipPath><path d="M1835 1543.8l-3.2 82.2c45.8-15.4 82.7-76.8 96-94.7l-92.8 12.5z" clip-path="url(#O)" class="AM"/><path d="M1978 1631.7l12.6 24.6-47.6 57.7-35-83.5m-57.8.8l-3 11.5 16.2 69.2 44.6-81.5" class="AN"/><path d="M1778.5 1502.8l-3.4-57.1s-17.4-3.2-32.9 8.2-10.4 33 .9 42 35.4 6.9 35.4 6.9z"/><path d="M1895 1344.9c-9.7-.6-34.9-4.7-54.1-17.9-29-20-51.4-12.6-51.4-12.6m252.2 85.8s-37.4 1-84.2-39.3" stroke-width="8.322" class="AG AH AJ AK AO"/><path d="M1754.3 1482.8l.3 1.3c.3 1.8.7 3.5 1.2 5.2l.6 2.4c2.1 7.9 5 15.4 8.7 22.6l2.1 3.8a70.29 70.29 0 0 0 4.6 7.4c16.2 24.3 41.4 41.7 71.4 46.5 35.1 5.7 68.9-7.5 92.1-32.2 5-5.4 9.6-11.3 13.5-17.7 1.9-2.9 3.6-6 5.2-9.2s3-6.5 4.3-9.9c3-7.8 5.2-16.1 6.5-24.8.1-.2.1-.5.1-.7 8.8-61.6-31.3-119-89.8-128.4-32.6-5.2-64.1 5.7-87 27.1-9.3 8.7-17.2 19.1-23.2 30.9l-.3.6c-.6 1.2-1.2 2.5-1.8 3.8-3.4 7.4-6.1 15.3-7.9 23.7a128.97 128.97 0 0 0-1.5 8.6 118.35 118.35 0 0 0 .9 39z" class="AI"/><g class="AG AH AJ AK Ao"><path d="M1827.9 1496.8c-5.2-1.5-8-7.7-5.1-12.7 0 0 10.4-17.8 11.8-28.2m9 42l-13.7-.8c-.7 0-1.4-.2-2-.3" class="AT"/><path d="M1851.9 1416.5c7.2-8 22.6-9.9 35.3-.9m-72.9 2c-8.1-7.2-23.5-7.4-35.2 2.9m35.3 34.5c-2.2-3.2-5.6-5.7-9.6-6.9-9.3-2.8-19.1 2.3-21.7 11.2l-5.2-1.9m78.5-4.9c1.7-3.5 4.6-6.5 8.4-8.4 8.8-4.2 19.2-.9 23.3 7.6l4.8-2.7" class="AR"/></g><g class="Aa"><circle cx="1872.3" cy="1460.9" r="16.3"/><circle cx="1799.6" cy="1465.9" r="16.3"/></g><circle cx="1791.1" cy="1464.6" r="7.6"/><circle cx="1863.3" cy="1459" r="7.6"/><path d="M1834.9 1535.2c8.6 4.6 18.7 5.8 29.1 2.2 13-4.6 17.9-11.2 20.1-19.9 1.8-7.5 1.2-17.8-6.2-18.8-7.4-1.1-9.2 10.2-25.3 14.2-15.4 3.8-23.4-3.6-28.5 2.1-4.2 4.2 1.6 15.3 10.8 20.2z"/><path d="M1861.1 1525.8c8.6-7.2 17-8.4 22.8-7.9-2.2 8.5-7.2 15-20 19.5-4 1.4-7.9 2.1-11.7 2.1.9-4.3 3.4-9 8.9-13.7z" class="AP"/><path d="M1926.8 1401.5s-43.7 6-81.4-29.5c0 0 11.4 23.6-6.9 32.7-22.7 11.3-54.4-26.8-54.4-26.8s6.3 28.2-11.9 30.4-35.6-17.8-21.6-51.6c14-33.7 81.2-36 97.1-23.9 0 0 104.2-1.6 132.2 97.5 0 0-24.4-1-41.8-6.3-.1.1-6.7-8.7-11.3-22.5z" class="AL"/><path d="M2154.4 1682.4s58.8 13 58.6 93.1-8.6 120.9-8.6 120.9L2161 1875s-43.4 36.5-22.4 132.4c31 141.4 54.6 198.1 54.6 198.1-36.8-39.2-189.4-40.2-189.4-40.2l6.3-67s5.6-112.6 1-184.3c-8.4-129.1 7.9-215.5 28.4-251.8-.1.1 86.7 12.7 114.9 20.2" class="AP"/><path d="M1966.9 1451.5s-3.7 12.6-21.2 13.7c0 0-2.5 58.1 2.2 103 11.5 109.2 79.4 115.4 125.7 109.1 32.2-4.3 96.1-8.8 126.2 3.3l45.4 22.3-278.3-251.4z" class="AL"/><path d="M1937.1 1425.3l8.9 56.6s17.7 1.5 32-11.3 7.2-33.8-4.9-41.7c-12.1-8-36-3.6-36-3.6z" class="AI"/><path d="M1796.3 1580.7l21.2-1.6c6.9-.5 12-6.5 11.5-13.4l-.4-5.9c-.5-6.9-6.5-12-13.4-11.5l-21.2 1.6c-6.9.5-12 6.5-11.5 13.4l.4 5.9c.6 6.9 6.6 12 13.4 11.5z"/><path d="M1733.1 1523.2a35.67 35.67 0 0 0 5.5 31.2h0c7.2 9.7 18.9 15 31 14.1l29.1-2.2m59.9-264s61.4-7 87.7 44.8c22 43.3 14.8 93 14.8 93" class="AG AH AJ AR An"/><path d="M1955.5 1516.2c-25 1.9-40.1-21.2-42.4-52.3s9-58.2 33.9-60.1l26.5-2 8.5 112.6-26.5 1.8z"/><path d="M1942.8 1460.7c2.1 26 14.7 55.4 38.9 53.6s42-28.5 39.6-59.5-23.9-54.7-48.2-52.9c-24.1 1.8-32.3 33.4-30.3 58.8z" class="Aj"/><path d="M1813.1 1796.7c6.9 223.7-27.7 367.7-27.7 367.7-74.3-5.4-97.4 16.3-97.4 16.3 62.6-78.6 67.3-221.7 70.4-261.4 6.7-87 3.7-157.8 3.7-157.8l51 35.2z" class="AP"/><path d="M1940.8 2121.8l-45.6-63.5-39.7 50.9z" class="Ae"/><g class="AP"><path d="M2145.8 1680.3c31.4 6.3 89.7 35.4 125.3 57.4 91.8 56.7 118.1 71.3 165.7 117.6L2324 2000.7s-50.2-44.9-118.8-89.7c-67.8-44.4-154.8-64-154.8-64s30.4-179.7 95.4-166.7z"/><path d="M2424.4 1843.8c7.8 6.9 15.5 14.4 23 22.7s14.7 17.5 21.5 28c6.8 10.4 13.1 22.1 18.3 35.4s9.3 28.3 10.8 44.7c1.6 16.3.5 33.8-3.5 50.4-2 8.3-4.7 16.4-8 23.9l-1.2 2.8-1.3 2.7-2.7 5.4c-1.9 3.5-3.8 7-5.8 10.2-4 6.6-8.4 12.5-12.9 18.1l-3.4 4-1.7 2-1.7 1.9-3.5 3.7-3.5 3.5c-9.4 9.2-19 16.8-28.5 23.3-18.9 13-37.4 22.1-55.4 29.4-9 3.6-17.9 6.7-26.8 9.5-8.8 2.7-17.6 5.1-26.3 7.1-15.7 3.8-46.3 9-46.3 9s-21.7-27.3-34.2-74.5c-12-45.3-13-70.1-13-70.1l10.5-3.1c13-3.9 25.7-8.2 37.6-12.8 3-1.2 5.9-2.3 8.8-3.6l8.5-3.6c5.5-2.4 10.8-4.9 15.8-7.4 9.9-5 18.7-10.1 24.7-14.8 6-4.6 8.8-8.7 8.3-8.6 0 0-.2.1-.2.2s-.2.2-.2.3c0 0 0 .1-.1.2 0 .1-.1.1-.1.2-.2.5-.6 1.3-.8 2.1-.5 1.7-.6 3.9-.6 5 .1 1.2.2 1.3-.2.3-.2-.5-.5-1.2-1-2-.5-.9-1-1.9-1.8-3.1-.7-1.2-1.7-2.5-2.7-3.9-1.1-1.4-2.2-2.9-3.6-4.5-2.6-3.1-5.7-6.4-9.2-9.8l112.4-124.2z"/></g><g class="AI"><path d="M2107.3 2001.5l2.5-.5 1.8-.3 3.5-.5 6.7-.7c4.4-.3 8.9-.4 13.4-.2 9 .4 18.3 2 27.6 5.3 4.6 1.6 9.2 3.7 13.7 6.1 4.4 2.5 8.8 5.4 12.8 8.7 8 6.6 14.7 14.6 20 22.9l1.5 2.3c9.7 15.6 5 36.1-10.5 45.8-15.6 9.7-36.1 5-45.8-10.5-1.1-1.8-2.1-3.9-2.9-5.8-1.2-3.2-2.6-5.9-4.4-8.2-.9-1.2-1.9-2.2-3-3.3-1.1-1-2.5-2-3.9-2.9-2.9-1.8-6.7-3.3-10.8-4.2-2.1-.5-4.3-.8-6.4-1.1-1.1-.1-2.2-.2-3.2-.2h-1.5-.6-.2c-.1 0 0 0 0 0h0l.2-.1c-14.5 2.8-28.5-6.7-31.2-21.1-3.2-14.7 6.3-28.7 20.7-31.5z"/><path d="M2122.7 2047.5l2.2-.5 1.7-.3 3.1-.5 6-.8c4-.4 7.9-.6 11.9-.5 8 .1 16.3 1.1 24.7 3.4 8.3 2.2 16.8 5.8 24.6 10.8 7.8 4.9 14.9 11.3 20.8 18.4l2.4 2.8c11.8 14.1 10 35.2-4.2 47-14.1 11.8-35.2 10-47-4.2-1.7-2-3.2-4.3-4.3-6.5-1.2-2.4-2.5-4.6-4.4-6.5-1.8-1.9-4.1-3.7-6.9-5.2s-6.3-2.7-10.1-3.6c-1.9-.4-3.8-.7-5.8-.9-1-.1-1.9-.2-2.9-.2l-1.3-.1h-.5-.2 0l.2-.1c-14.5 2.8-28.5-6.7-31.2-21.1-2.7-14.6 6.8-28.6 21.2-31.4z"/><path d="M2139.1 2093.6l2.5-.4 1.9-.2 3.5-.4 6.7-.3c4.4-.1 8.8.1 13.2.6a100.19 100.19 0 0 1 26.6 6.8c4.4 1.9 8.7 4.1 12.8 6.6 4.1 2.6 8 5.5 11.7 8.8 7.3 6.5 13.4 14.1 18.3 22.1l.8 1.4c9 14.7 4.3 34-10.5 42.9-14.7 9-34 4.3-42.9-10.5-.7-1.2-1.4-2.6-2-3.8-1.5-3.4-3.2-6.3-5.2-8.8-1-1.2-2.2-2.4-3.4-3.5-1.3-1.1-2.6-2.1-4.1-3-3-1.8-6.6-3.3-10.6-4.3-2-.5-4.1-.9-6.2-1.1l-3.1-.3c-.5 0-1 0-1.4-.1h-.6-.2 0l.3-.1c-14.5 2.3-28-7.6-30.3-22.1s7.7-28 22.2-30.3zm-362.4-68.1c-2 .4-3.6.9-5 1.7a9.99 9.99 0 0 0-3.1 2.6c-.8 1-1.5 2.1-2.2 3.4-.7 1.4-1.4 3.1-2 4.9-5.2 14.6-21.2 22.2-35.8 17.1s-22.2-21.2-17.1-35.8c.9-2.5 2.1-4.9 3.6-7l1.9-2.6c3.3-4.5 7-9 11.5-13 4.5-4.1 9.7-7.7 15.4-10.4s11.8-4.6 17.8-5.4 11.9-.8 17.4-.1c12.2 1.6 20.8 12.7 19.2 24.9-1.3 9.8-8.8 17.3-18 19l-3.6.7z"/><path d="M1766.3 2064.3c-1.2-.1-2.4 0-3.6.1-1.2.2-2.3.3-3.2.6-2 .6-3.4 1.4-4.6 2.4-1.1 1-2 2.1-2.9 3.5s-1.7 3.4-2.6 5.5c-5.9 14.2-22.2 20.9-36.4 14.9-14.2-5.9-20.9-22.2-14.9-36.4.8-1.9 1.8-3.7 3-5.4l1-1.4c3.9-5.4 8.3-10.7 14-15.4 5.6-4.7 12.3-8.6 19.3-11.1 7.1-2.6 14.4-3.7 21.4-3.6 3.5 0 6.8.3 10.1.8s6.5 1.3 9.6 2.2c11.8 3.6 18.4 16 14.8 27.8-3 9.9-12.3 16.2-22.3 15.8l-2.7-.3z"/><path d="M1754.8 2103.3l.2.1h0-.1-.4l-1-.1c-.7-.1-1.5-.1-2.2-.1l-4.5.2c-2.9.4-5.4 1.1-7.4 2.2-1 .5-1.9 1.1-2.7 1.8-.8.6-1.5 1.4-2.2 2.2-1.3 1.6-2.6 3.6-3.8 6.2-6 13.1-21.5 18.9-34.6 12.9s-18.9-21.5-12.9-34.6c.5-1.2 1.2-2.3 1.9-3.4l1-1.5a75.55 75.55 0 0 1 15.7-17.4c3.2-2.5 6.7-4.8 10.3-6.7 3.7-1.9 7.5-3.5 11.3-4.7 7.7-2.3 15.5-3.2 22.8-2.9 3.7.1 7.3.5 10.9 1.1 1.8.3 3.5.7 5.4 1.1.9.2 1.8.5 2.8.7l1.5.4 2 .7c11.6 3.9 17.9 16.4 14 28-3.9 11.3-16.4 17.6-28 13.8z"/><path d="M1728.2 1999.6s-10.3 8.1-12.8 22.3c-1.2 7-3.7 13.6-7.5 19.1-3.5 5-7 12.3-7.6 22.1-.5 8.1-2.6 15.8-6.4 22.4-4.8 8.5-8.8 22.8-.1 42.9l34.4-128.8z"/><path d="M1673 2137.9c-4.8-1.8-16.5-6.8-30.6-16.1-2.7-52.7 39.3-114.8 90.7-135.3l.1.1 17 6.5c28.3 10.8-.3 83.3-23.1 128.8-15 29.8-54.1 16-54.1 16z"/></g></svg>
