<svg xmlns="http://www.w3.org/2000/svg" width="38" height="38" fill="none" stroke="#2765cf" stroke-width="2" stroke-linejoin="round"><path d="M9.5 10.688a4.75 4.75 0 1 0 0-9.5 4.75 4.75 0 1 0 0 9.5z"/><path d="M15 16.3a8.3 8.3 0 0 0-4.219-2.157c-1.593-.297-3.24-.128-4.735.486s-2.771 1.646-3.669 2.966A7.92 7.92 0 0 0 1 22.05v3.45h3.53L5.706 37h7.06l.447-4.37" stroke-linecap="round"/><path d="M24.938 33.25c4.591 0 8.313-3.722 8.313-8.312s-3.722-8.312-8.312-8.312-8.312 3.722-8.312 8.313 3.722 8.313 8.313 8.313z"/><path d="M36.812 36.813l-5.998-5.998" stroke-linecap="round"/></svg>
