<svg xmlns="http://www.w3.org/2000/svg" xmlns:xlink="http://www.w3.org/1999/xlink" viewBox="348.03 545.89 1308.77 1375.31"><style><![CDATA[.B{stroke-miterlimit:10}.C{stroke-linecap:round}.D{fill:none}.E{fill:#c46c30}.F{fill:#212121}.G{stroke-linejoin:round}.H{stroke:#898989}.I{fill:#a14518}.J{stroke-width:13.577}.K{stroke:#d6d6d6}.L{stroke-width:5.895}.M{fill:#5d2262}.N{fill:#ffc600}.O{stroke-width:3.623}.P{stroke:#212121}.Q{fill:#fd6827}.R{stroke-width:56.762}.S{stroke-width:155.345}.T{stroke-width:6.404}.U{stroke-width:3.789}.V{stroke-width:21.021}.W{stroke-width:9.784}.X{stroke-width:4.248}.Y{stroke-width:19.684}.Z{stroke-width:4.379}]]></style><defs><path id="A" d="m981.2 748.1-72.3 2.2-32.8 108.2 135 .9z"/><clipPath id="B"><use xlink:href="#A"/></clipPath><clipPath id="C"><use xlink:href="#N"/></clipPath><clipPath id="D"><use xlink:href="#O"/></clipPath><clipPath id="E"><use xlink:href="#P"/></clipPath><clipPath id="F"><use xlink:href="#Q"/></clipPath><clipPath id="G"><use xlink:href="#R"/></clipPath><clipPath id="H"><use xlink:href="#S"/></clipPath><clipPath id="I"><use xlink:href="#T"/></clipPath><clipPath id="J"><use xlink:href="#U"/></clipPath><clipPath id="K"><use xlink:href="#V"/></clipPath><clipPath id="L"><use xlink:href="#W"/></clipPath><clipPath id="M"><use xlink:href="#X"/></clipPath><circle id="N" cx="911.6" cy="645.3" r="12.5"/><circle id="O" cx="963.9" cy="645.3" r="12.5"/><path id="P" d="m1225.5 1170.6c3.9 13.4 7 25.1 30.8 32.9 30.9 10.2 54.5-27.1 83.3-21.9 26 4.7-6.9-76.5-6.9-76.5z"/><path id="Q" d="m1171.8 1123c-2 15.5-3.9 46.6 41 55.2 44.3 8.4 73.5-21.2 73.5-21.2l-16.6-59.5z"/><path id="R" d="m664.3 1255c30.3-8.6 49.7-17 80.6 9.8 7 6.1 12.9 10.7 17.8 14.3 11.3 8.3 26.9 7.3 37.1-2.4 8.2-7.9 11.1-19.8 7.3-30.6l-46.7-132-43.6-7.4z"/><path id="S" d="m742.4 971.9s-3.4-11.1 8-31.4c3.4-5.9 9.4-13.4 15.2-18.9 9.9-9.3 26.3-8.3 37.2-.2 11.8 8.8 15 23.4 7.1 35.8l-33.3 52.6z"/><path id="T" d="m955.8 1115.1c0 16.7-14.1 29.5-31.5 29.5s-32.9-12.8-34.7-29.5c-2-17.7 12-32.8 31.3-32.8s34.9 15.1 34.9 32.8z"/><path id="U" d="m956 1115.1c0 16.7 14 29.5 31.4 29.5s32.9-12.8 34.8-29.5c2-17.7-11.9-32.8-31.2-32.8s-35 15.1-35 32.8z"/><path id="V" d="m991 1177.7c-11.1-.3-10.2 14.4-35.1 16.7-20.9 1.9-22.9-11.8-34.9-6.9-15.7 6.4-13.8 26.9 7.2 36.8 19.3 9.1 37.9 7.8 58.2-2.3 28-14.5 23.9-42.3 4.6-44.3z"/><path id="W" d="m693.3 1063.8c7.9-9 25.2-60.6 29.2-80.2.8-4.2 1.8-8.2 2.8-12.1 3.9-14.8 20.5-24.2 35.6-22.1h-2.2c17.1 2.4 28.7 18.7 25.4 35.7l-10.4 65z"/><path id="X" d="m964.8 671.7c-7.3-5.1-14.7 6.3-27 6.3s-20.4-12-27-6.3c-5.1 4.4-4.7 12.4 0 17.2 7.5 7.5 17.2 11.2 27 11.2s19.6-3.7 27-11.2c4.7-4.8 5.5-13.4 0-17.2z"/></defs><path d="M1448.8 885.2c33 50.4 9.2 208-4.5 196-82.1-72.5 4.5-196 4.5-196zM434.5 1101.6c-31.6-3.6-42.8-42.3-42.8-42.3l76.7-26.3-11.3 50.5c.1 0-15.9 18.9-22.6 18.1z" class="F"/><path d="m1111.4 1008.7 317.3 212.3" class="B C D H R"/><circle cx="1427.5" cy="1220.1" fill="#f4c58d" r="10.4"/><path d="m691.9 984.9c-162.6 87.1-258.7 197.9-266.2 253.8" stroke="#c46c30" class="B C D G S"/><path d="m470.3 1155.9s65.3-1.7 131.2-39.8l-14.2-17s-73.1 40.1-117 56.8z" class="I"/><path d="m997 605.8s-24.8-38.6-63.3-20.6c-39.1 18.2-65.5-3.6-76.1 36.3-12.6 47.6-16.8 44.9-46.5 66.1-39.8 28.4-11.8 78.3-20.3 116.2-9.1 40.6-86.7 36.8-60.6 103.2 30.5 77.5 12.2 133.7 56.5 165.8 31.5 22.8 51.8-35.6 95.3-55.5 74-33.9 79.9-84.8 88.8-115.5 22.3-76.9 51.6-6.1 50.4-109.6-1.2-100 43.6-64.9 24.6-126.5-18.9-61.8-48.8-59.9-48.8-59.9z" class="M"/><path d="m1418.4 1018.8c23.9-32.5 133-45.7 160.7-14.1" stroke="#c46c30" class="B C D G S"/><path d="m935.6 592.2s18.7-21.8 59-8.4c40.9 13.6 22.2 36.1 49.5 67 31.4 35.6 48.7 13.7 85.7 33.4 43.1 23 17.2 46.9 49.5 92 24.2 33.8 83.8 24.7 80 96.1-4.4 83.2-31.1 109-76.5 139.6-51.3 34.6-73.7-7.4-106.8-27.7-61.2-37.6-89.8-10-96.2-68.4-8.8-79.6-66.7-6.1-77.4-109-10.3-99.5-53.8-96.1-42-159.5s75.2-55.1 75.2-55.1z" class="M"/><use xlink:href="#A" class="E"/><g class="I"><path clip-path="url(#B)" d="m990.1 728.6 11.1 87.1c-16.1-34.4-112.7-50.3-132.8-58z"/><path d="M871.6 664.5l1.8 44s-13.1 3.8-25.8-3.7-10.5-24.5-2.6-32.2c7.9-7.8 26.6-8.1 26.6-8.1zm145.8 45l-1.8-44s13.1-3.8 25.8 3.7 10.5 24.5 2.6 32.2c-7.9 7.8-26.6 8.1-26.6 8.1z"/></g><path d="m1028.8 696.4c-.1.3-.1.7-.2 1-.2 1.4-.6 2.7-1 4-.1.6-.3 1.3-.5 1.9-1.6 6.1-4 11.9-7 17.4-.6 1-1.1 2-1.7 3-1.1 2-2.4 3.9-3.7 5.7-13.1 18.7-33.4 32.2-57.8 36-28.5 4.5-55.9-5.5-74.8-24.5-4.1-4.1-7.8-8.7-11-13.6-1.5-2.3-2.9-4.6-4.2-7.1-1.3-2.4-2.5-5-3.5-7.6-2.4-6-4.3-12.4-5.4-19-.1-.2-.1-.4-.1-.6-7.4-47.4 25-91.7 72.4-99.1 26.5-4.1 52 4.2 70.7 20.6 7.6 6.7 14 14.6 18.9 23.7.1.1.2.3.2.4.5 1 1 1.9 1.5 2.9 2.8 5.7 5 11.8 6.5 18.2.5 2.2.9 4.4 1.3 6.6 1.6 10.3 1.3 20.5-.6 30.1z" class="E"/><g class="B C D G"><path d="m964 585.2c-7.3-1.8-29.9-5.3-38.4-21.2-13.1-24.4-28.3-11.5-28.3-11.5" stroke="#5d2262" class="T"/><path d="M952 637.5c1.6-2.6 4-4.6 7.1-5.8 7-2.6 14.8.8 17.2 7.6l3.9-1.7m-56.8.6c-1.5-2.6-3.8-4.8-6.9-6-6.9-2.8-14.8.3-17.5 7l-3.9-1.8" stroke="#000" class="U"/></g><use fill="#f4f4f5" xlink:href="#N"/><circle clip-path="url(#C)" cx="913.5" cy="654.8" r="5.8"/><use fill="#f4f4f5" xlink:href="#O"/><g clip-path="url(#D)"><circle cx="961.8" cy="654.8" r="5.8"/></g><path d="M1102 1050.2c-14.3 85.8-60.3 128.1-99.1 148.9H885.4c-38.8-20.8-84.8-63.1-99.1-148.9C762.6 908 874.6 880 874.6 880l64.2-67.7 74.8 67.7c.1 0 112.1 28 88.4 170.2z" fill="#fff"/><path d="M1112.8 680.9s57 5.5 57 50.5m-407.6 33.1s29.5-3.4 34-47.3" stroke="#5d2262" class="B C D G T"/><path d="M1026.5 1016.1s524.3 214.1 414 39.2c-57.3-90.9 8.3-170.1 8.3-170.1-34.5 13.9-64.7 20.7-181.8-23.6-103.2-39.1-216.1-19.9-255.8-2.2-38.4 17.1 15.3 156.7 15.3 156.7zm-634.7 43.2c162.9-62.7 206.9-252.7 443.5-206.8 35.3 6.8 36.6 15.7 36.6 15.7 52.9 19.7 22.2 18.7 22.2 122.9 0 0-41.2 104.7-69.5 66.5-39.9-54-188.7 104.4-223.1 58.6-65.6-87.1-187.6-66.6-209.7-56.9z" fill="#fff"/><path d="m1011.1 859.4-7.7-29.4c-15.1-8.5-36.3-18-63.8-17.9-26.2.1-42.4 9-55 17.3-3.9 10.5-11.6 25.3-15.5 35.7l21.1 24.3 48.5-76.2 54 70.1z" fill="#b1b4b6"/><ellipse cx="645.1" cy="1183.8" rx="52.8" ry="94.5" stroke="#00a5ad" transform="matrix(.9874 -.1584 .1584 .9874 -179.3449 117.1084)" class="D V"/><path d="m1499.3 1918-111.7-343.6c-45-142.9-141.6-264.2-271.6-338.6-26-14.9-50.6-26.3-71.5-31.5l-100.7-35.7-100.7 35.7c-20.9 5.2-45.5 16.6-71.5 31.5-130 74.4-226.6 195.7-271.6 338.6l-113 346.8z" fill="#00a5ad"/><path d="m1080.4 1190.1c-7.1-17.9-23.4-30.4-42.5-32.6l-34.7-4.1c-38.3-4.5-76.9-4.5-115.2 0l-34.7 4.1c-19.1 2.2-35.4 14.8-42.5 32.6l-16.5 33.9s113.3-14.4 150.7-14.2c38.3.2 152.1 15.8 152.1 15.8z" fill="#080559"/><g class="B D"><path d="M944.8 1206.7c-14 .2-25.3-14.2-25-32s12-32.5 26-32.7 25.3 14.2 25 32-12 32.5-26 32.7z" stroke="#ffc600" stroke-width="13.088"/><path d="M922 616.5c-8.2-5.3-18.2-1.2-23.5 7m74.6-.6c-4.5-8.7-15.2-10.2-23.9-5.7" stroke="#000" class="C G U"/></g><path d="m1513 964.4c-20.7 20.3-76.3 33.1-95.1 34.3l-.5-18.9c51.5 1.6 95.6-15.4 95.6-15.4z" class="I"/><use xlink:href="#P" class="E"/><path clip-path="url(#E)" d="m1228.9 1163.3s-15.2 17.2 4 24.2c17.6 6.4 34.7-8.4 41.6-26.5 6.2-16.1-2.6-57.4-2.6-57.4z" class="I"/><use xlink:href="#Q" class="E"/><path clip-path="url(#F)" d="m1170.4 1129.1s-13.6 13.5 4.5 23c22.8 12 58.2-10.4 61.6-27.4s-23-55.4-23-55.4z" class="I"/><g class="E"><path d="M1649 1038.5c-5 10.9-10.8 20.1-16.8 28.2-3 3.8-6 7.8-9.1 11.1l-2.3 2.6c-.8.9-1.5 1.7-2.3 2.5l-4.6 4.7c-1.6 1.6-3.1 3-4.6 4.4l-4.6 4.2-4.6 3.9-2.3 2-2.3 1.8-4.6 3.6-4.6 3.4-4.6 3.3-4.6 3.1c-12.3 8.2-24.6 15-37 21.1-12.3 6-24.7 11.2-37.2 15.8-24.9 9.1-50 15.7-75.6 20.2-12.8 2.2-25.6 4-38.5 5.2s-25.9 1.9-39 2h-1.9c-50.8.6-92.4-40-93.1-90.8-.6-50.8 40-92.4 90.8-93.1 3.6 0 7.2.1 10.7.5 7.9.8 15.9 1.4 24 1.6s16.1 0 24.2-.4c16.1-.9 32.2-3.2 47.3-6.8 7.6-1.8 14.9-3.9 21.8-6.3s13.3-5 18.9-7.8l2.1-1 1.9-1c.6-.3 1.3-.7 1.9-1l1.7-1 .9-.5.8-.5c.5-.3 1-.6 1.6-.9l1.3-.9c.4-.3 1-.6 1.3-.8.3-.3.7-.5 1.1-.7.2-.1.3-.2.5-.3l.4-.3c.7-.4.8-.6 1.3-.7.4-.2.5.2.1 1.7 18.7-38.6 65.1-54.8 103.8-36.1 38.4 18.9 54.5 65.4 35.8 104z"/><path d="M1353.1 998.2c-57-5-142.2-84.4-211.6 37.4-28.5 49.9-7.8 121.4 82.7 107.1 12.6-2 49.7-11.3 49.7-11.3m-853.4 29.7c14-1.1 28.4-2.8 42.8-5.1s28.9-5.2 43.2-8.5c28.6-6.7 56.7-15.4 83.1-26.2 26.4-10.7 51.1-23.6 71.9-38.3 10.4-7.4 19.8-15.2 27.7-23.2l1.5-1.5c.5-.5.9-1 1.4-1.5l2.8-3c.5-.5 1-1 1.4-1.5l1.2-1.5 2.5-3.1c.9-1 1.5-2.1 2.3-3.1l2.2-3.1c.4-.5.7-1 1-1.5l1-1.5 1-1.5c.3-.5.7-1 1.2-1.4l15.5-12.3c32.2-25.5 78.9-20 104.4 12.2 17.5 22.2 20.3 51.3 9.9 75.5-.6 1.3-1.3 2.6-2.1 3.9l-2.3 3.7-2.3 3.7c-.8 1.2-1.5 2.5-2.4 3.7l-4.9 7c-1.7 2.3-3.3 4.7-5.1 6.9-6.9 9-14.2 17.4-21.7 25.2-15.1 15.7-31.2 29.2-47.6 41.2-16.5 11.9-33.3 22.3-50.3 31.6s-34.3 17.4-51.6 24.8c-34.7 14.6-69.8 25.8-105.5 34.7-17.8 4.4-35.8 8.2-54 11.3s-36.6 5.6-55.6 7.3c-42.7 3.8-80.4-27.8-84.2-70.5s27.8-80.4 70.5-84.2h.5z"/></g><path d="m1101 1001.7 81.6 54.1" class="B C D H R"/><path d="M1018.2 626.7s-23.9-1.5-35.1-24.6c0 0-27.2 12.2-51.9-10.2 0 0 6.1 12.6-8.9 19.5S883.1 596 883.1 596s8.2 14.3-3.7 15.7c-11.9 1.5-24-9.5-17.6-31.9 7.3-25.3 54.4-19.9 64.8-12.2 0 0 82.2-21.8 91.6 59.1z" class="M"/><use xlink:href="#R" class="E"/><path clip-path="url(#G)" d="m649.6 1259.5c20.3-4 55.5-21.5 78.9-63.1 22.5-40 27.1-83 27.1-83l54.2 21.3 69.2 159.5-82.7 78.3-132.3-37.1-23.6-76.4" class="I"/><use xlink:href="#S" class="E"/><g class="I"><path clip-path="url(#H)" d="m704.9 1059.8c7.9-9 25.2-60.6 29.2-80.2.8-4.2 1.8-8.2 2.8-12.1 3.9-14.8 18.3-24.2 33.4-22.1 17.1 2.4 28.7 18.7 25.4 35.7l-12.6 65z"/><path d="m937.1 651-11.1 10c-.6.6-.2 1.6.6 1.6h22.3c.8 0 1.2-1 .6-1.6l-11.1-10c-.4-.4-.9-.4-1.3 0z"/></g><path d="m736.8 1414.1 33 29.3 31.2-16.5-10.1-28.8z" class="F"/><path d="m671.8 1379.1c8.3 28.8 35 62.3 108.3 51.3l-10.3 13s36.5 1.4 62.4-9.8 24.6-63.7-74.1-99.6c-46.2-16.8-97.3 7-86.3 45.1z" fill="#a54404"/><path d="m685 1369c.1-.2.2-.3.3-.5 2.3-3.6 8.1-5.8 10-.8 8.1 21.5 12.7 22.2 26.6 37.2 3.9 4.2 1.6 5.5-3.3 4.8-14.4-2-43.1-23.4-33.6-40.7z" class="E"/><g class="D"><g class="H"><ellipse cx="821.2" cy="1375.7" rx="19.2" ry="30.4" transform="matrix(.4802 -.8771 .8771 .4802 -779.8318 1435.3613)" class="W"/><ellipse cx="842" cy="1355.4" rx="26.7" ry="42.2" transform="matrix(.4802 -.8771 .8771 .4802 -751.2664 1443.0356)" class="J"/></g><g class="B C K"><path d="m798.8 1381.7c-3.3-4.2-5.4-8.7-5.7-12.9" class="X"/><path d="m809.6 1362.1c-3.1-4.3-5.3-8.8-6.2-13.1" class="L"/></g><ellipse cx="866.2" cy="1327.1" rx="31.1" ry="49.3" transform="matrix(.4802 -.8771 .8771 .4802 -713.8215 1449.4868)" class="H J"/><path d="m828.3 1334.8c-3.6-5-6.1-10.2-7.2-15.3" class="B C K L"/><ellipse cx="882.4" cy="1297.5" rx="35.4" ry="56" transform="matrix(.4802 -.8771 .8771 .4802 -679.4817 1448.3192)" class="H J"/><path d="m839.4 1306.3c-4.1-5.7-7-11.6-8.2-17.4" class="B C K L"/></g><path d="m1168.2 1419.7-34.1 28.5-30.1-18.6 12-28.1z" class="F"/><path d="m1236.1 1390.6c-10.2 28.1-39.1 59.8-111.5 43.9l9.4 13.7s-36.5-1.1-61.6-14-20.3-65.2 80.6-94.4c47.2-13.7 96.6 13.5 83.1 50.8z" fill="#a54404"/><path d="m1223.6 1379.6c-.1-.2-.2-.3-.2-.5-2-3.8-7.7-6.3-9.9-1.5-9.5 21-14.2 21.3-29 35.4-4.1 3.9-2 5.4 2.9 5 14.5-1.1 44.6-20.5 36.2-38.4z" class="E"/><g class="D"><g class="H"><ellipse cx="1087.2" cy="1377.1" rx="30.4" ry="19.2" transform="matrix(.9074 -.4203 .4203 .9074 -478.1643 584.5921)" class="W"/><ellipse cx="1067.9" cy="1355.5" rx="42.2" ry="26.7" transform="matrix(.9074 -.4203 .4203 .9074 -470.8721 574.4552)" class="J"/></g><g class="B C K"><path d="m1109.2 1384.6c3.6-4 5.9-8.3 6.6-12.5" class="X"/><path d="m1099.8 1364.3c3.4-4.1 5.8-8.4 7.1-12.6" class="L"/></g><ellipse cx="1045.7" cy="1325.6" rx="49.3" ry="31.1" transform="matrix(.9074 -.4203 .4203 .9074 -460.3497 562.3472)" class="H J"/><path d="m1082.9 1335.9c4-4.8 6.8-9.8 8.3-14.8" class="B C K L"/><ellipse cx="1031.5" cy="1295" rx="56" ry="35.4" transform="matrix(.9074 -.4203 .4203 .9074 -448.8083 553.5599)" class="H J"/><path d="m1073.8 1306.7c4.5-5.4 7.7-11.1 9.4-16.8" class="B C K L"/></g><path d="M1160.6 1127.5l-9.9 43.6c-22.9 74.5-101.3 89.1-197.3 89.1-95.4 0-169.6-15.1-193.2-89.1-1.2-3.9-7.7-43.4-8.7-47.9 0-147.6 57-219.1 202.3-219.1 145.1.1 202 104.7 206.8 223.4z" class="F"/><g class="B"><path d="m1152.4 1154.8c-11.4 83.4-98.6 144.2-195.8 144.2s-184.3-60.8-195.6-144.2c-12.8-94.4 74.1-180.6 195.8-180.6s208.6 86.2 195.6 180.6z" stroke="#fd6827" stroke-width="15.396" class="N"/><path d="M977.1 1267.9s-2.9-10.5-21-10.7c0 0 3.1-11 15.7-21.1H952s-26.8 23.4-14.8 40c12.4 17.4 45.6 8.2 39.9-8.2zm-20.1 8.3c-4 0-7.3-2.5-7.3-5.5 0-3.1 3.3-5.5 7.3-5.5 4.1 0 7.3 2.5 7.3 5.5.1 3-3.2 5.5-7.3 5.5z" fill="#eee" stroke="#eee" class="G O"/></g><path d="m1082.4 1205.8s-9.7 9.3-18.1 18c-7 7.3-6.5 16.4 7.4 10.6 8.4-3.5-1.3 10-7 15.2-5.7 5.1-1.9 17 23.6-6.3 26.3-24.1 35.8-45.5 35.5-55.4-.4-10.1-12.6-9.9-41.4 17.9z" fill="#ffde8d"/><path d="m1090.8 1114.6-1.1 12.7h17.9l-6.3 8.7s10 3.8 5 10c-5 6.1-14.5-2.4-14.5-2.4l-11.6 11.2s7.5 9.2 23.9 9.2c16.5 0 29.6-15.5 18.3-27.6l10.8-22.6h-42.4z" fill="#eee" stroke="#eee" class="B G O"/><path d="m838.9 1026.6s-42.9 31.5-52.5 72.3c-8.6 36.6 22.2 1.6 35.8 1.6 14.9 0 14.1 19.2 38.1 8.9 24.4-10.5 42.6-39.3 35.5-56.1-6.6-15.5-27.6-12.4-20.1-24.9 7.6-12.8-11.3-20.2-36.8-1.8z" fill="#ffde8d"/><path d="M919.9 998.1h23.8l.4 59.1h-17.4l-.8-39.6h-13.4zm63.4 39.3s18-13.2 12.9-30.5c-5-17-30.3-14-37.4-2.7l4.3 14c1.8-1.4 6.8-5 10.8-4.9 4.6.1 6.1 4.4 1.5 8.3-4 4.1-15.8 10.4-15.9 33.9H995l2.9-18h-14.6zm-172.7 94c-23.7-6.2-35.2 13-24.5 24.1 11.3 11.6 25.4 6.1 25.4 6.1-1.4 11.8-16 18.7-16 18.7l16 9.3c30.4-17.7 25.5-51.3-.9-58.2zm-6.8 21.6c-3.9 0-7.3-2.6-7.7-5.8-.3-3.2 2.5-5.9 6.5-5.9 3.9 0 7.4 2.6 7.7 5.9.3 3.2-2.6 5.8-6.5 5.8z" fill="#eee" stroke="#eee" class="B G O"/><path d="m860.6 1105.7 10.8-.5-26.5-20.6-17 22.4 10.8-.4" class="F"/><path d="m848.4 1099.8c6.6 37.6 41.5 64.8 78.7 64.8h27.8" class="B D P Y"/><path d="m1049.8 1105.7-10.7-.5 26.5-20.6 16.9 22.4-10.7-.4" class="F"/><g class="B P"><path d="m1062.1 1099.8c-6.6 37.6-41.5 64.8-78.7 64.8h-27.8" class="D Y"/><path d="M967.7 1130.5l-.8 35.3c-.1 6.6-5.3 11.8-11.5 11.8s-11.3-5.2-11.4-11.8l-.7-35.3" class="C G N Z"/></g><use fill="#fff" xlink:href="#T"/><path clip-path="url(#I)" d="m929.9 1089.3c.2 3.7-2.9 6.7-6.9 6.7s-7.4-3-7.6-6.7c-.3-3.8 2.8-6.9 6.9-6.9 4 0 7.4 3.1 7.6 6.9z" class="F"/><use fill="#fff" xlink:href="#U"/><path clip-path="url(#J)" d="m982 1089.3c-.2 3.7 2.9 6.7 6.8 6.7 4 0 7.4-3 7.6-6.7.3-3.8-2.8-6.9-6.8-6.9s-7.5 3.1-7.6 6.9z" class="F"/><path d="M879.7 1095.1c3.7-22.4 26.3-35.9 49.9-29m105.9 29c-3.5-22.4-26-35.9-49.6-29" class="B C D G P Z"/><use xlink:href="#V" class="F"/><path clip-path="url(#K)" d="m1023.9 1236.4c-2.5 17-22.2 30-44.3 30s-40.3-13-40.7-30c-.4-18.3 19.5-34.1 44.6-34.1s43.1 15.9 40.4 34.1z" fill="#e60278"/><g class="Q"><path d="m1148.2 970.3c-7.5 22.9-46.6 16.7-90.3 2.3-43.7-14.3-78.9-31.3-71.4-54.2 10.8-33 56.8-48.2 100.5-33.9 43.6 14.4 72 52.8 61.2 85.8z"/><circle cx="1094.4" cy="885.2" r="12.9"/></g><g fill="#f58449"><circle cx="1096.1" cy="887.1" r="5.7"/><path d="m1079.9 959.6c9.8 21.4 56.9 22.2 57.8-.9.5-13.1-11.1-38.1-24.3-42-11.3-2.7-5.7 8.5-2.7 14.1 6.2 26.4-37.3 5.1-30.8 28.8z"/></g><path d="m965.5 915.7c0 6.3-10.9 11.5-24.3 11.5s-24.3-5.1-24.3-11.5c0-1.6-1.2-13.6 0-15 3.7-4.1 14.2 0 24.3 0s20.6-4.1 24.3 0c1.2 1.4 0 13.4 0 15z" class="Q"/><ellipse cx="941.2" cy="901.3" rx="24.7" ry="10.5" class="N"/><g class="Q"><path d="m741.7 994.9c9.8 22 52.4 8.2 94.4-10.6s71-35.3 61.1-57.3c-14.2-31.7-61.5-42.3-103.4-23.5-42 18.7-66.3 59.7-52.1 91.4z"/><circle cx="786.6" cy="904.8" r="12.9"/></g><g fill="#f58449"><circle cx="785.1" cy="906.9" r="5.7"/><path d="m808.6 977.4c-7.6 22.3-54.3 27.9-57.6 5-1.9-12.9 7.1-39 19.8-44.3 10.9-3.8 6.5 7.8 4.1 13.7-3.4 27 37.7 1.4 33.7 25.6z"/></g><use xlink:href="#W" class="E"/><path clip-path="url(#L)" d="m677.4 1061c11-10.9 24.8-31.9 40.5-47.5 6.6-6.5 14.7-14.9 21.8-20 10.4-7.4 24.3-7.5 34.8-.4 13.3 8.9 17.5 26.5 9.7 40.4-14 25.1-36.2 56.9-41.3 92.5" class="I"/><path d="m685.7 1067.8c11-10.9 25-34.1 40.7-49.7 6.6-6.5 14.6-12.7 21.7-17.8 10.4-7.4 24.3-7.5 34.8-.4 13.3 8.9 17.5 26.5 9.7 40.4-14 25.1-36.2 56.9-41.3 92.5" class="E"/><use xlink:href="#X" class="F"/><g fill="#e60278"><ellipse clip-path="url(#M)" cx="952" cy="705.8" rx="23.1" ry="21.8"/><path d="M719.8 1025.2a6.82 6.82 0 0 0-1.2 2.6c-1.3 6.2 6.4 10.3 11.1 5.9 4.2-4 8.9-7.7 12.9-10.7 5.4-4.1 8.5-10.7 7.7-17.4-.4-3.3.1-6.6 2.7-8.2-7.6 1.8-27.4 20.4-33.2 27.8zm-2.6-22.1v.5c-.1 3.9 5.6 4.5 6.7.8 2-6.8 5.7-13.4 8.8-18.3 2.6-4.1 2.1-9.6-1.3-13.1-2.5-2.5-4.2-5.6-2.7-8.7-5.2 5.3-10.2 30.1-11.5 38.8z"/></g><path d="m660.3 1277.1c-28.7 4.8-58.8-33-67.2-84.5s8.1-97.2 36.8-102.1" stroke="#00a5ad" class="B C D V"/></svg>
