<svg xmlns="http://www.w3.org/2000/svg" width="52" height="52" fill="none"><path d="M43.632 43.813l.158-1.777a4.748 4.748 0 0 0-3.7-5.067l-5.78-1.284v-9.091a2.97 2.97 0 0 0-2.974-2.97l-.111.001a2.84 2.84 0 0 0-2.85 2.97v14.567l-2.339-1.754a2.428 2.428 0 0 0-3.397 3.396l.752 1.002m-5.703-6.216h-7.125a2.376 2.376 0 0 1-2.376-2.375V10.562a2.376 2.376 0 0 1 2.376-2.374h21.374a2.376 2.376 0 0 1 2.375 2.374v8.313m-9.868 4.303a7.204 7.204 0 0 0-3.194-.74 7.101 7.101 0 0 0-6.688 4.75 7.193 7.193 0 0 0-.418 2.375m-.019 0h9.5M21.25 12.938a4.156 4.156 0 1 1 .001 8.31 4.156 4.156 0 0 1-.001-8.31z" stroke="#2765cf" stroke-width="2" stroke-linecap="round" stroke-linejoin="round"/></svg>
