<svg xmlns="http://www.w3.org/2000/svg" width="52" height="52" fill="none"><path d="M8.188 43.813h35.624m0-28.5V8.186m0 0h-7.124m7.124 0l-7.995 7.996a3.56 3.56 0 0 1-3.542.893l-9.04-2.416a3.564 3.564 0 0 0-3.438.923l-9.235 9.234m5.938 9.495h-4.75a1.19 1.19 0 0 0-1.188 1.188v8.313h7.126V35.5a1.19 1.19 0 0 0-1.188-1.188zm11.875-11.874h-4.75a1.19 1.19 0 0 0-1.188 1.187v20.188h7.125V23.625a1.19 1.19 0 0 0-1.187-1.188zm11.875 4.75H35.5a1.19 1.19 0 0 0-1.188 1.187v15.438h7.126V28.374a1.19 1.19 0 0 0-1.188-1.188z" stroke="#2765cf" stroke-width="2" stroke-linecap="round" stroke-linejoin="round"/></svg>
