<svg xmlns="http://www.w3.org/2000/svg" width="52" height="52" fill="none"><path d="M31.936 31.938a6.407 6.407 0 0 0-5.938-4.75 6.407 6.407 0 0 0-5.937 4.75M33.125 13.65a14.305 14.305 0 0 1 5.225 5.225m0 14.25a14.305 14.305 0 0 1-5.225 5.225m-14.25 0a14.305 14.305 0 0 1-5.225-5.225m0-14.25a14.305 14.305 0 0 1 5.225-5.225m7.123 5.225a3.562 3.562 0 1 1 0 7.125 3.562 3.562 0 1 1 0-7.125zm0-10.688a2.968 2.968 0 1 1 0 5.938 2.968 2.968 0 1 1 0-5.938zm14.844 14.844a2.968 2.968 0 1 1 0 5.938 2.968 2.968 0 1 1 0-5.938zM25.998 37.875a2.968 2.968 0 1 1 0 5.938 2.968 2.968 0 1 1 0-5.938zM11.155 23.031a2.968 2.968 0 1 1 0 5.938 2.968 2.968 0 1 1 0-5.938z" stroke="#2765cf" stroke-width="2" stroke-linecap="round" stroke-linejoin="round"/></svg>
