<svg xmlns="http://www.w3.org/2000/svg" width="52" height="52" fill="none"><path d="M12.936 36.688v-6.37c0-.417.339-.756.755-.756h24.615c.416 0 .755.34.755.756v6.37m-26.125 0a3.562 3.562 0 1 1 0 7.124 3.562 3.562 0 1 1 0-7.124zm26.125 0a3.562 3.562 0 1 1 0 7.124 3.562 3.562 0 1 1 0-7.124zM25.998 24.812v11.875m0 0a3.562 3.562 0 1 1 0 7.126 3.562 3.562 0 1 1 0-7.126zm7.127-11.874a7.861 7.861 0 0 0-7.247-5.938 7.861 7.861 0 0 0-7.247 5.938m7.367-16.625A4.75 4.75 0 1 1 26 17.687a4.75 4.75 0 0 1 0-9.5z" stroke="#2765cf" stroke-width="2" stroke-linecap="round" stroke-linejoin="round"/></svg>
