<svg xmlns="http://www.w3.org/2000/svg" width="52" height="52" fill="none"><path d="M22.31 23.23l-3.376 4.5a1.187 1.187 0 0 1-1.79.127l-1.831-1.83m6.996 6.89l-3.375 4.5a1.187 1.187 0 0 1-1.79.127l-1.831-1.832m11.874-7.507h7.125M22.31 14.23l-3.375 4.5a1.187 1.187 0 0 1-1.79.127l-1.831-1.83m11.874 2.178h7.125m-7.124 17.5h7.125m7.124 4.75a2.376 2.376 0 0 1-2.374 2.375H12.936a2.376 2.376 0 0 1-2.374-2.375V10.58a2.376 2.376 0 0 1 2.374-2.375h16.83c.63 0 1.233.25 1.678.695l9.297 9.297c.445.445.696 1.049.696 1.679v21.579z" stroke="#2765cf" stroke-width="2" stroke-linecap="round" stroke-linejoin="round"/></svg>
